<?xml version="1.0" encoding="UTF-8" standalone="no"?>
<svg
   xmlns:dc="http://purl.org/dc/elements/1.1/"
   xmlns:cc="http://creativecommons.org/ns#"
   xmlns:rdf="http://www.w3.org/1999/02/22-rdf-syntax-ns#"
   xmlns:svg="http://www.w3.org/2000/svg"
   xmlns="http://www.w3.org/2000/svg"
   xmlns:sodipodi="http://sodipodi.sourceforge.net/DTD/sodipodi-0.dtd"
   xmlns:inkscape="http://www.inkscape.org/namespaces/inkscape"
   inkscape:export-ydpi="96"
   inkscape:export-xdpi="96"
   inkscape:export-filename="/Users/docislaw/blog.png"
   inkscape:version="1.0beta1 (060977b, 2019-10-14)"
   height="313.43039"
   width="224.9971"
   sodipodi:docname="blog.svg"
   id="svg1082"
   version="1.1">
  <metadata
     id="metadata1086">
    <rdf:RDF>
      <cc:Work
         rdf:about="">
        <dc:format>image/svg+xml</dc:format>
        <dc:type
           rdf:resource="http://purl.org/dc/dcmitype/StillImage" />
        <dc:title></dc:title>
      </cc:Work>
    </rdf:RDF>
  </metadata>
  <sodipodi:namedview
     inkscape:snap-global="false"
     inkscape:current-layer="svg1082"
     inkscape:window-maximized="0"
     inkscape:window-y="23"
     inkscape:window-x="0"
     inkscape:cy="176.14506"
     inkscape:cx="244.88521"
     inkscape:zoom="1"
     showgrid="false"
     id="namedview1084"
     inkscape:window-height="817"
     inkscape:window-width="1440"
     inkscape:pageshadow="2"
     inkscape:pageopacity="0"
     guidetolerance="10"
     gridtolerance="10"
     objecttolerance="10"
     borderopacity="1"
     inkscape:document-rotation="0"
     bordercolor="#666666"
     pagecolor="#ffffff" />
  <defs
     id="defs846">
    <style
       id="style833">.cls-3{fill:#d5d3d0}.cls-4{fill:#505b65}.cls-5{fill:#f7f2ed}.cls-6{fill:url(#linear-gradient)}.cls-7{fill:#a6a9ab}.cls-8{fill:#f4a110}.cls-9{fill:#888b8c}.cls-10{fill:#fff;opacity:.8}</style>
    <clipPath
       id="clip-path">
      <path
         inkscape:connector-curvature="0"
         d="M 0,0 H 227 V 316 H 0 Z"
         fill="currentColor"
         transform="translate(980,1408)"
         data-name="Rectangle 39"
         id="Rectangle_39" />
    </clipPath>
    <linearGradient
       gradientUnits="objectBoundingBox"
       y2="0.50099999"
       x2="1.105"
       y1="0.50099999"
       x1="0.106"
       id="linear-gradient">
      <stop
         id="stop837"
         stop-color="#c3bae9"
         offset="0" />
      <stop
         id="stop839"
         stop-color="#b8aee6"
         offset=".024" />
      <stop
         id="stop841"
         stop-color="#ada2e2"
         offset=".184" />
      <stop
         id="stop843"
         stop-color="#7b67d0"
         offset="1" />
    </linearGradient>
    <linearGradient
       gradientTransform="matrix(0.45245797,0,0,0.45245797,-109.50739,-46.890895)"
       id="ef5d85de-35d2-4357-9719-f86a6844cb01"
       x1="507.94699"
       y1="790.48083"
       x2="507.94699"
       y2="154.92035"
       gradientUnits="userSpaceOnUse">
      <stop
         offset="0"
         stop-color="gray"
         stop-opacity="0.25"
         id="stop1310" />
      <stop
         offset="0.53514"
         stop-color="gray"
         stop-opacity="0.12"
         id="stop1312" />
      <stop
         offset="1"
         stop-color="gray"
         stop-opacity="0.1"
         id="stop1314" />
    </linearGradient>
    <style
       id="style833-2">.cls-3{fill:#d5d3d0}.cls-4{fill:#505b65}.cls-5{fill:#f7f2ed}.cls-6{fill:url(#linear-gradient)}.cls-7{fill:#a6a9ab}.cls-8{fill:#f4a110}.cls-9{fill:#888b8c}.cls-10{fill:#fff;opacity:.8}</style>
    <clipPath
       id="clip-path-4">
      <path
         inkscape:connector-curvature="0"
         d="M 0,0 H 227 V 316 H 0 Z"
         fill="currentColor"
         transform="translate(980,1408)"
         data-name="Rectangle 39"
         id="Rectangle_39-5" />
    </clipPath>
  </defs>
  <path
     id="path1939"
     fill="#f2f2f2"
     d="m 70.54105,40.402393 c 0,-2.080958 -1.516732,-3.7679 -3.387725,-3.7679 -0.03701,0 -0.07366,0.0022 -0.110412,0.0029 -0.564408,-3.384733 -3.232487,-5.948009 -6.43919,-5.948009 -2.728327,0 -5.066672,1.85563 -6.051349,4.493883 a 8.5804366,16.786058 0 0 0 -2.229762,-0.558496 c -2.868849,-1.13e-4 -5.194512,2.586557 -5.194512,5.777339 0,2.898469 1.919182,5.297971 4.421204,5.713385 1.81813,0.650331 4.658087,1.068851 7.849889,1.068851 5.41882,0 9.383828,-2.022202 9.483271,-3.542219 0.992921,-0.656948 1.658586,-1.861783 1.658586,-3.240017 z"
     inkscape:connector-curvature="0"
     style="opacity:1;stroke-width:0.229002;stop-opacity:1" />
  <path
     id="path1941"
     fill="#f2f2f2"
     d="m 219.93126,24.543923 c 0,-2.77353 -3.95474,-5.02191 -8.83318,-5.02191 -0.0966,0 -0.19208,0.003 -0.28789,0.004 -1.47164,-4.51122 -8.42841,-7.92758 -16.7896,-7.92758 -7.11385,0 -13.21087,2.47321 -15.77832,5.9895 a 22.372694,22.372694 0 0 0 -5.8139,-0.7444 c -7.48026,-1.4e-4 -13.54421,3.4474 -13.54421,7.70012 0,3.86312 5.00409,7.06121 11.52788,7.61488 4.7406,0.86677 12.14553,1.42458 20.46786,1.42458 14.12907,0 24.46746,-2.69522 24.72675,-4.72112 2.58895,-0.87559 4.32461,-2.48141 4.32461,-4.31834 z"
     inkscape:connector-curvature="0"
     style="opacity:1;stroke-width:0.426903;stop-opacity:1" />
  <g
     transform="matrix(0.55500821,0,0,0.55500821,75.110091,-115.88096)"
     id="g2439"
     style="opacity:1;stop-opacity:1">
    <path
       style="opacity:1;stroke-width:0.426903;stop-opacity:1"
       inkscape:connector-curvature="0"
       d="m -118.92091,667.07918 -0.8538,-0.0167 a 198.01233,198.01233 0 0 1 3.03084,-28.29816 c 3.69204,-20.01357 9.83127,-33.1575 18.247172,-39.0666 l 0.490272,0.69872 c -19.659624,13.80348 -20.904474,66.15535 -20.914484,66.68273 z"
       fill="#2f2e41"
       id="path1989" />
    <path
       style="opacity:1;stroke-width:0.426903;stop-opacity:1"
       inkscape:connector-curvature="0"
       d="m -108.24834,666.8749 -0.85381,-0.0167 c 0.0184,-0.94552 0.55199,-23.22952 9.324744,-29.38875 l 0.490272,0.69872 c -8.418826,5.91076 -8.957036,28.4795 -8.961206,28.70671 z"
       fill="#2f2e41"
       id="path1991" />
    <circle
       style="opacity:1;stroke-width:0.426903;stop-opacity:1"
       cx="-93.149155"
       cy="596.20496"
       r="4.2690277"
       fill="#fa7327"
       id="circle1993" />
    <circle
       style="opacity:1;stroke-width:0.426903;stop-opacity:1"
       cx="-95.263245"
       cy="632.91864"
       r="4.2690277"
       fill="#fa7327"
       id="circle1995" />
    <path
       style="opacity:1;stroke-width:0.426903;stop-opacity:1"
       inkscape:connector-curvature="0"
       d="m -110.23823,603.03312 c 0.8023,5.12454 -1.28878,9.70804 -1.28878,9.70804 0,0 -3.39187,-3.72507 -4.19417,-8.84963 -0.8023,-5.12455 1.28878,-9.70803 1.28878,-9.70803 0,0 3.39186,3.72506 4.19417,8.84962 z"
       fill="#2f2e41"
       id="path1997" />
    <path
       style="opacity:1;stroke-width:0.426903;stop-opacity:1"
       inkscape:connector-curvature="0"
       d="m -96.283988,615.47894 c -4.906392,1.68293 -9.784092,0.42247 -9.784092,0.42247 0,0 3.07709,-3.98904 7.983459,-5.67198 4.906372,-1.68293 9.784095,-0.42247 9.784095,-0.42247 0,0 -3.07709,3.98904 -7.983462,5.67198 z"
       fill="#2f2e41"
       id="path1999" />
    <path
       style="opacity:1;stroke-width:0.426903;stop-opacity:1"
       inkscape:connector-curvature="0"
       d="m -96.126354,647.99234 a 13.291191,13.291191 0 0 1 -6.857856,0.29612 12.112841,12.112841 0 0 1 12.453608,-4.27172 13.291191,13.291191 0 0 1 -5.595752,3.9756 z"
       fill="#2f2e41"
       id="path2001" />
  </g>
  <g
     transform="translate(217.09049,33.644063)"
     id="g2236"
     style="opacity:1;stop-opacity:1">
    <ellipse
       style="opacity:1;stroke-width:0.384705;stop-opacity:1"
       cx="-36.234169"
       cy="264.2789"
       rx="25.261715"
       ry="3.908993"
       fill="#3f3d56"
       id="ellipse2058" />
    <path
       style="opacity:1;stroke-width:0.384705;stop-opacity:1"
       inkscape:connector-curvature="0"
       d="m -21.621099,243.41836 c -3.224667,11.92031 -14.269868,19.30286 -14.269868,19.30286 0,0 -5.816996,-11.94409 -2.592328,-23.86441 3.224668,-11.92032 14.269888,-19.30286 14.269888,-19.30286 0,0 5.816976,11.9441 2.592308,23.86441 z"
       fill="#fa7327"
       id="path2064" />
    <path
       style="opacity:1;stroke-width:0.384705;stop-opacity:1"
       inkscape:connector-curvature="0"
       d="m -50.956587,243.41836 c 3.224668,11.92031 14.269869,19.30286 14.269869,19.30286 0,0 5.816996,-11.94409 2.592328,-23.86441 -3.224668,-11.92032 -14.269869,-19.30286 -14.269869,-19.30286 0,0 -5.816995,11.9441 -2.592328,23.86441 z"
       fill="#fa7327"
       id="path2066" />
    <path
       style="opacity:1;stroke-width:0.384705;stop-opacity:1"
       inkscape:connector-curvature="0"
       d="m -46.218165,240.85656 c 8.848538,8.61369 9.929321,21.85495 9.929321,21.85495 0,0 -13.265527,-0.72431 -22.114065,-9.338 -8.848538,-8.61369 -9.929321,-21.85495 -9.929321,-21.85495 0,0 13.265519,0.72431 22.114065,9.338 z"
       fill="#3f3d56"
       id="path2068" />
    <path
       style="opacity:1;stroke-width:0.384705;stop-opacity:1"
       inkscape:connector-curvature="0"
       d="m -26.359524,240.85656 c -8.848534,8.61369 -9.92932,21.85495 -9.92932,21.85495 0,0 13.26553,-0.72431 22.114064,-9.338 8.8485341,-8.61369 9.9293209,-21.85495 9.9293209,-21.85495 0,0 -13.2655269,0.72431 -22.1140649,9.338 z"
       fill="#3f3d56"
       id="path2070" />
  </g>
  <circle
     id="circle2060"
     fill="#f2f2f2"
     r="97.57283"
     cy="162.06256"
     cx="111.21659"
     style="opacity:1;fill:#ff7029;fill-opacity:0.09803922;stroke-width:0.291149;stop-opacity:1" />
  <path
     id="path2062"
     fill="#3f3d56"
     d="m 118.12799,260.85505 c -1.12795,0 -2.26741,-0.0179 -3.38583,-0.0528 l 0.0254,-0.81231 c 1.60598,0.05 3.24489,0.0639 4.8584,0.0417 l 0.0111,0.8131 q -0.75335,0.0101 -1.50909,0.0103 z m 6.40122,-0.18859 -0.0476,-0.81151 c 1.60834,-0.0949 3.23734,-0.22829 4.84171,-0.39623 l 0.085,0.80834 c -1.61666,0.16953 -3.25795,0.30412 -4.87902,0.3994 z m -14.67482,-0.12664 c -1.62185,-0.12427 -3.26077,-0.28705 -4.8715,-0.48477 l 0.0992,-0.80675 c 1.59841,0.19573 3.22463,0.35772 4.83418,0.4808 z m 24.40909,-0.8941 -0.12189,-0.80357 c 1.59802,-0.24259 3.20835,-0.52407 4.78494,-0.83733 l 0.15841,0.79723 c -1.58887,0.31562 -3.21112,0.5995 -4.82146,0.84367 z m -34.12409,-0.29738 c -1.602193,-0.27156 -3.219473,-0.58362 -4.806776,-0.92824 l 0.172507,-0.79483 c 1.575194,0.34223 3.179972,0.65191 4.770049,0.9211 z m 43.72415,-1.61072 -0.19534,-0.78929 c 1.56865,-0.38789 3.14603,-0.81667 4.68847,-1.27405 l 0.23107,0.77976 c -1.55435,0.46094 -3.14364,0.8929 -4.7242,1.28358 z M 90.574073,257.2715 c -1.571622,-0.41806 -3.153173,-0.8778 -4.700781,-1.36735 l 0.244972,-0.77499 c 1.535885,0.48556 3.105327,0.94175 4.664643,1.35624 z m 62.673537,-2.31782 -0.2668,-0.76786 c 1.52219,-0.52923 3.05312,-1.10134 4.5511,-1.70085 l 0.30174,0.75514 c -1.50908,0.60388 -3.05192,1.18036 -4.58603,1.71357 z m -72.019118,-0.63684 c -1.526365,-0.561 -3.062255,-1.16645 -4.564597,-1.79931 l 0.315634,-0.74959 c 1.49083,0.6281 3.01481,1.2288 4.529656,1.78582 z m 81.097088,-2.99555 -0.33667,-0.74005 c 1.46185,-0.66423 2.93123,-1.37331 4.36727,-2.10741 l 0.37005,0.72419 c -1.44717,0.73964 -2.92767,1.4539 -4.40063,2.12328 z m -90.137129,-0.81072 c -1.467206,-0.69916 -2.939971,-1.44279 -4.376804,-2.21063 l 0.383131,-0.71703 c 1.426113,0.76189 2.887363,1.49996 4.343453,2.19396 z m 98.836759,-3.63635 -0.40259,-0.70591 c 1.40189,-0.8 2.80141,-1.64092 4.15884,-2.49967 l 0.43434,0.68686 c -1.36774,0.86551 -2.77758,1.71316 -4.19059,2.51872 z M 63.542243,245.89119 C 62.1467,245.061 60.749172,244.18556 59.388765,243.28948 l 0.447449,-0.67891 c 1.349885,0.88933 2.736693,1.75802 4.121714,2.58185 z m 115.745447,-4.2442 -0.46531,-0.66621 c 1.3201,-0.92229 2.63744,-1.88825 3.91545,-2.87048 l 0.4955,0.64476 c -1.28756,0.98979 -2.61521,1.96289 -3.94564,2.89193 z M 55.359759,240.50197 c -1.312367,-0.95325 -2.623343,-1.95177 -3.8968,-2.96855 l 0.507398,-0.63524 c 1.263728,1.00883 2.564782,1.99982 3.867023,2.94553 z m 131.683811,-4.81591 -0.52407,-0.62174 c 1.2304,-1.03822 2.4548,-2.12012 3.63993,-3.2159 l 0.55186,0.59712 c -1.19385,1.10413 -2.42781,2.19436 -3.66772,3.24052 z m -139.337259,-1.2951 c -1.222243,-1.07038 -2.436542,-2.18363 -3.608957,-3.30919 l 0.562982,-0.58681 c 1.163678,1.11724 2.368649,2.22216 3.58156,3.28459 z m 146.522219,-5.3507 -0.57886,-0.57092 c 1.1343,-1.14939 2.25629,-2.33887 3.33421,-3.53511 l 0.60428,0.54392 c -1.08627,1.20577 -2.21659,2.404 -3.35963,3.56211 z m -153.584896,-1.4277 c -1.121397,-1.17915 -2.228898,-2.39803 -3.291727,-3.62245 l 0.614199,-0.53281 c 1.054694,1.2153 2.153662,2.42463 3.26672,3.59467 z m 160.138586,-5.84619 -0.62809,-0.51614 c 1.02472,-1.24705 2.03356,-2.5338 2.99952,-3.82533 l 0.65112,0.48675 c -0.97311,1.30146 -1.98988,2.59853 -3.02255,3.85472 z M 34.229101,220.22274 c -1.00705,-1.27247 -1.998622,-2.58623 -2.947312,-3.90474 l 0.659857,-0.47485 c 0.941542,1.3082 1.925569,2.61203 2.92508,3.87536 z m 172.419149,-6.30039 -0.67255,-0.45658 c 0.90681,-1.33521 1.79496,-2.7093 2.6394,-4.08499 l 0.69323,0.42561 c -0.85161,1.38601 -1.74651,2.77084 -2.66008,4.11596 z M 28.516496,212.28422 c -0.885965,-1.3582 -1.753064,-2.75575 -2.577486,-4.15486 l 0.700352,-0.41291 c 0.818267,1.3884 1.678821,2.7756 2.558032,4.1231 z m 183.260544,-6.71251 -0.71148,-0.39305 c 0.78054,-1.41261 1.53886,-2.86334 2.25471,-4.31208 l 0.72893,0.3605 c -0.72098,1.45947 -1.48565,2.92131 -2.27216,4.34463 z M 23.554691,203.86213 c -0.758317,-1.43326 -1.493593,-2.90384 -2.185423,-4.37044 l 0.73529,-0.347 c 0.686657,1.45549 1.416188,2.91496 2.168749,4.3371 z m 192.564599,-7.08054 -0.74481,-0.32636 c 0.64795,-1.47971 1.27007,-2.99515 1.84934,-4.50385 l 0.75912,0.29142 c -0.58364,1.52061 -1.21095,3.04758 -1.86365,4.53879 z M 19.387122,195.02713 c -0.62333,-1.496 -1.220257,-3.02653 -1.774106,-4.54951 l 0.764265,-0.27792 c 0.549482,1.51147 1.141845,3.03009 1.760209,4.51457 z m 200.248228,-7.40571 -0.77184,-0.25569 c 0.50741,-1.52894 0.98624,-3.09163 1.42296,-4.64519 l 0.78293,0.21995 c -0.4403,1.56549 -0.92309,3.14049 -1.43405,4.68095 z M 16.046752,185.83957 c -0.483772,-1.54959 -0.938372,-3.13252 -1.351075,-4.70554 l 0.786506,-0.20645 c 0.409533,1.56109 0.860752,3.13212 1.340754,4.6698 z m 206.238718,-7.64114 -0.79204,-0.18422 c 0.36405,-1.56706 0.69678,-3.16747 0.98938,-4.75596 l 0.79961,0.1469 c -0.29459,1.60122 -0.63007,3.21354 -0.99692,4.7933 z M 13.563365,176.37132 c -0.33906,-1.5881 -0.64596,-3.20597 -0.911968,-4.80956 l 0.801989,-0.1334 c 0.264221,1.59167 0.568739,3.19724 0.905219,4.77304 z m 210.494035,-7.79915 -0.80595,-0.11038 c 0.21876,-1.59247 0.40338,-3.21629 0.54907,-4.82663 l 0.80994,0.073 c -0.14691,1.62305 -0.3331,3.25919 -0.55306,4.86397 z M 11.960969,166.71568 c -0.191762,-1.60954 -0.349183,-3.24886 -0.46809,-4.87229 l 0.811122,-0.0596 c 0.117717,1.61152 0.274145,3.23813 0.464519,4.83576 z m 212.980621,-7.89088 -0.81231,-0.0366 c 0.0723,-1.61113 0.10919,-3.24528 0.10919,-4.8568 h 0.81309 c 0,1.62385 -0.0369,3.27031 -0.10997,4.89335 z M 11.246526,156.95402 c -0.02781,-0.99692 -0.04189,-2.0141 -0.04209,-3.02254 q 0,-0.93858 0.01607,-1.87356 l 0.813105,0.0143 q -0.01607,0.92785 -0.01607,1.85927 c 2.01e-4,1.00091 0.0143,2.01053 0.04169,3.00032 z M 224.2325,152.79718 c -0.0166,-1.61212 -0.0707,-3.24608 -0.16001,-4.85681 l 0.81151,-0.0453 c 0.0901,1.62304 0.14453,3.26931 0.16159,4.89334 z M 12.226582,147.218 11.415063,147.1672 c 0.101439,-1.62462 0.241589,-3.26552 0.416081,-4.87726 l 0.808342,0.0875 c -0.173301,1.59962 -0.312062,3.22801 -0.412904,4.84053 z m 211.465578,-4.12033 c -0.16241,-1.60299 -0.3645,-3.22483 -0.60033,-4.82088 l 0.80439,-0.11871 c 0.2374,1.60815 0.44109,3.24231 0.60507,4.8574 z m -210.419627,-5.5365 -0.80357,-0.12427 c 0.249133,-1.60854 0.538567,-3.2298 0.860345,-4.81929 l 0.79683,0.16119 c -0.319201,1.57739 -0.606448,3.18633 -0.853605,4.78237 z m 208.998637,-4.07189 c -0.31007,-1.58611 -0.65985,-3.18275 -1.04018,-4.74543 l 0.79006,-0.19216 c 0.38312,1.5746 0.7357,3.18354 1.04813,4.78157 z m -207.072658,-5.44837 -0.78869,-0.19772 c 0.39484,-1.5748 0.832164,-3.1627 1.299859,-4.71983 l 0.778563,0.23385 c -0.463922,1.54522 -0.897876,3.12101 -1.289732,4.6837 z M 219.97319,124.0512 c -0.45337,-1.54819 -0.94888,-3.10552 -1.47254,-4.6293 l 0.76864,-0.26442 c 0.52802,1.53549 1.02749,3.10513 1.48448,4.66504 z M 17.997542,118.72532 17.23049,118.45574 c 0.540349,-1.53708 1.123779,-3.08152 1.734006,-4.5904 l 0.75395,0.30491 c -0.605668,1.49718 -1.184728,3.0299 -1.72091,4.55507 z m 198.818138,-3.86008 c -0.59315,-1.49638 -1.2284,-2.99813 -1.88827,-4.46375 l 0.74165,-0.3339 c 0.66504,1.47694 1.30504,2.9902 1.90256,4.4979 z m -195.168691,-5.1643 -0.738866,-0.33945 c 0.679113,-1.47892 1.401881,-2.96201 2.148302,-4.40797 l 0.722587,0.37279 c -0.740848,1.43507 -1.458075,2.90683 -2.132023,4.37463 z m 191.189301,-3.67347 c -0.72775,-1.43544 -1.49877,-2.87386 -2.29162,-4.27477 l 0.70749,-0.4006 c 0.7992,1.41183 1.57578,2.86116 2.3091,4.30772 z m -186.726545,-4.97195 -0.70472,-0.40576 c 0.811123,-1.408444 1.666512,-2.81828 2.542549,-4.19 l 0.685265,0.437523 c -0.869285,1.361392 -1.718324,2.760515 -2.523094,4.158247 z M 208.0593,97.585524 c -0.85917,-1.367749 -1.75882,-2.730339 -2.67397,-4.05005 l 0.66778,-0.463328 c 0.9223,1.329836 1.82911,2.702748 2.69462,4.081031 z M 31.343326,92.859939 30.678709,92.391449 c 0.937374,-1.329437 1.91743,-2.654507 2.913566,-3.938484 l 0.642382,0.498268 c -0.988389,1.274445 -1.9613,2.589392 -2.891331,3.908706 z M 202.52833,89.610685 c -0.97985,-1.283383 -2.0002,-2.559223 -3.03366,-3.791984 l 0.62333,-0.522286 c 1.041,1.24229 2.06929,2.527659 3.05669,3.820768 z M 37.300686,85.179693 36.681723,84.652443 c 1.051921,-1.235542 2.148302,-2.465324 3.258583,-3.655208 l 0.594346,0.554638 c -1.101745,1.180954 -2.189791,2.40161 -3.233966,3.62782 z M 196.29148,82.167862 c -1.09222,-1.188891 -2.22534,-2.36726 -3.36718,-3.501957 l 0.57331,-0.576879 c 1.15057,1.143632 2.29203,2.330736 3.39258,3.528559 z M 43.929413,78.076323 43.360872,77.495077 c 1.162688,-1.137475 2.365874,-2.262048 3.575805,-3.342352 l 0.541536,0.606651 c -1.200797,1.071969 -2.394847,2.188006 -3.5488,3.316947 z M 189.4015,75.319978 c -1.19702,-1.085665 -2.43297,-2.156443 -3.67327,-3.182547 l 0.51852,-0.626505 c 1.24943,1.033869 2.4949,2.112767 3.70106,3.20677 z M 51.173527,71.607398 50.660174,70.976921 c 1.257576,-1.024124 2.557237,-2.034156 3.863054,-3.002104 l 0.48437,0.653108 c -1.29609,0.9608 -2.586021,1.963091 -3.834071,2.979473 z M 181.91362,69.124602 c -1.29155,-0.972513 -2.62037,-1.926761 -3.94961,-2.836147 l 0.45896,-0.670973 c 1.33958,0.916138 2.67833,1.877531 3.97978,2.857587 z M 58.972087,65.82731 58.518289,65.152766 c 1.345913,-0.905613 2.731531,-1.79237 4.118537,-2.636244 l 0.422424,0.694791 c -1.376277,0.837327 -2.751372,1.717533 -4.087163,2.615997 z M 173.88815,63.635543 c -1.3741,-0.850425 -2.78513,-1.679412 -4.19377,-2.464332 l 0.39544,-0.710277 c 1.41976,0.790873 2.84151,1.626411 4.22631,2.482994 z M 67.260771,60.785489 66.870494,60.072038 c 1.42393,-0.779164 2.883991,-1.535099 4.339484,-2.247162 l 0.357321,0.730525 c -1.444371,0.70651 -2.893313,1.456686 -4.306522,2.230091 z m 98.129849,-1.88388 c -1.44675,-0.720801 -2.92884,-1.417182 -4.40499,-2.069693 l 0.32874,-0.743628 c 1.48765,0.657475 2.98126,1.359216 4.43914,2.085574 z M 75.969913,56.525614 75.646738,55.779606 c 1.488061,-0.644967 3.010245,-1.263533 4.524097,-1.838624 l 0.28864,0.760303 c -1.502344,0.570526 -3.012821,1.184325 -4.489562,1.824329 z m 80.518627,-1.558918 c -1.50553,-0.583823 -3.04637,-1.140852 -4.58008,-1.655396 l 0.25886,-0.77102 c 1.54522,0.518711 3.09799,1.079906 4.61501,1.668495 z m -71.448988,-1.885074 -0.253304,-0.77261 c 1.545224,-0.506599 3.121811,-0.983628 4.68569,-1.417379 l 0.217371,0.78333 c -1.551967,0.430574 -3.116445,0.903827 -4.649757,1.406659 z m 62.228488,-1.20894 c -1.55079,-0.442086 -3.13253,-0.853802 -4.70118,-1.223631 l 0.1866,-0.791269 c 1.58096,0.372606 3.17461,0.787499 4.73769,1.232761 z M 94.39921,50.484086 94.218166,49.691428 c 1.584147,-0.361898 3.19784,-0.691618 4.796063,-0.979858 l 0.144521,0.800004 c -1.586319,0.286257 -3.187517,0.613404 -4.75954,0.972512 z m 43.41487,-0.840302 c -1.58334,-0.297172 -3.19605,-0.561579 -4.79368,-0.785912 l 0.11276,-0.805166 c 1.60993,0.226106 3.23535,0.49251 4.831,0.791867 z m -33.8559,-0.884768 -0.10759,-0.805961 c 1.60953,-0.214792 3.24647,-0.395438 4.86514,-0.53638 l 0.0707,0.809929 c -1.60636,0.14015 -3.2306,0.319209 -4.82822,0.532412 z m 24.23718,-0.466505 c -1.60161,-0.15087 -3.23178,-0.267199 -4.84569,-0.345215 l 0.0397,-0.812305 c 1.62581,0.07881 3.26831,0.195943 4.88222,0.34799 z m -14.56049,-0.377771 -0.0341,-0.812305 c 1.4944,-0.06234 3.01739,-0.0941 4.52728,-0.09449 l 0.36804,5.82e-4 -0.002,0.813108 -0.36566,-5.82e-4 c -1.49837,4.08e-4 -3.01024,0.03197 -4.49313,0.0937 z"
     inkscape:connector-curvature="0"
     style="opacity:1;stroke-width:0.291149;stop-opacity:1" />
  <ellipse
     id="ellipse2082"
     fill="#3f3d56"
     ry="10.970231"
     rx="70.894707"
     cy="259.24509"
     cx="70.840248"
     style="opacity:1;stroke-width:0.291149;stop-opacity:1" />
  <circle
     id="circle2084"
     fill="#2f2e41"
     r="4.8455062"
     cy="114.34962"
     cx="104.68011"
     style="opacity:1;stroke-width:0.291149;stop-opacity:1" />
  <path
     id="path2086"
     fill="#2f2e41"
     d="m 99.488484,112.27297 a 4.8454013,4.8454013 0 0 1 4.326346,-4.81686 4.845509,4.845509 0 1 0 0,9.63373 4.8454042,4.8454042 0 0 1 -4.326346,-4.81687 z"
     inkscape:connector-curvature="0"
     style="opacity:1;stroke-width:0.291149;stop-opacity:1" />
  <path
     id="path2088"
     fill="#fa7327"
     d="m 99.834596,114.34962 c 0,0 -0.752549,3.46107 3.950064,4.84551"
     inkscape:connector-curvature="0"
     style="opacity:1;stroke-width:0.291149;stop-opacity:1" />
  <circle
     id="circle2090"
     fill="#2f2e41"
     r="16.267054"
     cy="130.9955"
     cx="106.6841"
     style="opacity:1;stroke-width:0.291149;stop-opacity:1" />
  <path
     id="path2092"
     fill="#a0616a"
     d="m 90.977589,181.7362 -0.582297,12.22824 27.950268,9.31676 c 0,0 -1.45574,-15.43088 -0.5823,-16.88663 z"
     inkscape:connector-curvature="0"
     style="opacity:1;stroke-width:0.291149;stop-opacity:1" />
  <polygon
     transform="matrix(0.29114869,0,0,0.29114869,-48.657497,47.007937)"
     id="polygon2094"
     fill="#a0616a"
     points="323.601,649.747 314.601,684.747 356.601,684.747 356.601,649.747 "
     style="opacity:1;stop-opacity:1" />
  <polygon
     transform="matrix(0.29114869,0,0,0.29114869,-48.657497,47.007937)"
     id="polygon2096"
     fill="#a0616a"
     points="541.601,659.052 560.601,665.747 570.601,640.639 553.601,627.247 "
     style="opacity:1;stop-opacity:1" />
  <path
     id="path2098"
     fill="#2f2e41"
     d="m 118.83131,226.20106 c 0,0 8.24872,-1.08371 8.24872,5.90386 0,6.98757 1.16459,24.16534 -10.48136,22.1273 0,0 -5.24067,0.5823 -3.20264,-5.53182 0,0 2.07465,-2.48723 1.32848,-4.00953 -0.74618,-1.5223 -5.11341,-2.68689 -4.53111,-3.56034 0.5823,-0.87344 6.98757,-7.86102 6.98757,-7.86102 z"
     inkscape:connector-curvature="0"
     style="opacity:1;stroke-width:0.291149;stop-opacity:1" />
  <path
     id="path2100"
     fill="#2f2e41"
     d="m 118.92786,201.82546 -28.532568,-9.89906 -1.746899,6.98757 c 0,0 -42.798854,-24.74764 -45.419193,-7.86101 0,0 -2.329189,13.68398 1.164595,31.7352 l 0.291149,14.55744 c 0,0 7.278717,1.74689 10.772501,0.29114 l 0.291149,-15.72203 c 0,0 2.911487,-10.1902 1.455744,-18.05121 0,0 21.836148,17.17777 31.735207,19.21581 0,0 -34.646694,26.78568 -30.570612,35.22899 4.076081,8.44332 9.025609,9.89906 15.43088,8.44332 4.41405,-1.0032 24.175596,-16.93909 36.035637,-26.75019 8.20187,-6.7849 12.85951,-17.0305 12.27552,-27.65897 -0.21221,-3.86217 -1.10348,-7.60552 -3.18311,-10.517 z"
     inkscape:connector-curvature="0"
     style="opacity:1;stroke-width:0.291149;stop-opacity:1" />
  <path
     id="path2102"
     fill="#2f2e41"
     d="m 44.976092,242.58627 c 0,0 -0.291148,-3.49378 -2.03804,-2.03804 -1.746893,1.45575 -7.861015,6.98757 -7.861015,6.98757 0,0 -22.1273,5.82297 -8.734461,11.3548 0,0 8.734461,1.74689 18.051219,-2.32919 0,0 14.881003,0.42633 14.573646,-3.28062 -0.307357,-3.70695 -3.801144,-9.89787 -3.801144,-9.89787 0,0 -4.076082,2.98829 -8.734461,-1.0878 z"
     inkscape:connector-curvature="0"
     style="opacity:1;stroke-width:0.291149;stop-opacity:1" />
  <circle
     id="circle2104"
     fill="#a0616a"
     r="10.772501"
     cy="137.4816"
     cx="102.62354"
     style="opacity:1;stroke-width:0.291149;stop-opacity:1" />
  <path
     id="path2106"
     fill="#a0616a"
     d="m 111.358,138.0639 c 0,0 1.74689,8.73445 4.94952,10.7725 l -17.760068,20.9627 -6.696421,-6.40527 4.949529,-8.73446 c 0,0 5.53183,-3.20264 3.78494,-7.56986 z"
     inkscape:connector-curvature="0"
     style="opacity:1;stroke-width:0.291149;stop-opacity:1" />
  <path
     id="path2108"
     fill="#a0616a"
     d="m 117.76326,149.70984 c 0,0 12.81055,2.62034 14.26629,11.06365 1.45574,8.44331 -1.45574,23.87419 -1.45574,23.87419 l -6.11412,45.4192 c 0,0 -0.29116,19.21581 -7.86102,16.01318 -7.56986,-3.20264 2.03804,-17.76007 2.03804,-17.76007 l 2.62034,-28.53257 c 0,0 1.16459,-24.16535 -1.1646,-27.07683 l -9.31675,-2.91149 c 0,0 2.03804,-19.21581 6.98756,-20.08926 z"
     inkscape:connector-curvature="0"
     style="opacity:1;stroke-width:0.291149;stop-opacity:1" />
  <path
     id="path2110"
     fill="#a0616a"
     d="m 96.80056,154.65937 c 0,0 -8.734464,-0.29115 -14.266283,6.69642 -5.531829,6.98756 -18.924668,12.22825 -18.924668,12.22825 l -33.4821,13.10169 c 0,0 -6.114122,-10.7725 -9.899055,-6.98758 -3.784933,3.78494 6.987569,13.39284 11.937096,12.22825 4.949528,-1.16459 34.937843,-10.1902 34.937843,-10.1902 l 23.874196,-10.7725 z"
     inkscape:connector-curvature="0"
     style="opacity:1;stroke-width:0.291149;stop-opacity:1" />
  <path
     id="path2112"
     fill="#d0cde1"
     d="m 115.85616,148.14264 c 0,0 -11.19458,14.96004 -16.144114,14.6689 -4.94953,-0.29116 -1.615963,-9.13708 -1.615963,-9.13708 l -3.493783,0.87345 c 0,0 -4.789305,9.13707 -5.37161,9.71936 0,0 -6.987566,11.3548 0.873449,13.97514 l 0.291153,6.11413 c 0,0 19.506958,-0.87345 27.950268,3.49378 l 1.74689,-15.13973 c 0,0 -11.06364,-5.53183 -4.94953,-16.30433 0,0 2.16898,-5.64328 4.49816,-6.22558 z"
     inkscape:connector-curvature="0"
     style="opacity:1;stroke-width:0.291149;stop-opacity:1" />
  <path
     id="path2114"
     opacity="0.1"
     d="m 118.78229,228.17441 -44.545754,32.60865 c 0,0 44.836894,-26.49453 44.545754,-32.60865 z"
     inkscape:connector-curvature="0"
     style="stroke-width:0.291149;stop-opacity:1" />
  <path
     id="path2116"
     fill="#2f2e41"
     d="m 103.20878,124.83687 c -5.7345,0 -10.383235,2.71176 -10.383235,6.05688 0,1.49675 0.934433,2.86468 2.476872,3.92149 l 1.998886,-1.44834 -0.543578,2.26898 c 0.225552,0.10453 0.455857,0.2057 0.696061,0.29919 l 2.986134,-3.48382 v 4.27988 a 17.430877,17.430877 0 0 0 2.76886,0.21951 c 5.73449,0 10.38324,-2.71176 10.38324,-6.05688 0,-3.34512 -4.64875,-6.05689 -10.38324,-6.05689 z"
     inkscape:connector-curvature="0"
     style="opacity:1;stroke-width:0.291149;stop-opacity:1" />
  <circle
     id="circle2118"
     fill="#2f2e41"
     r="4.8455062"
     cy="121.91949"
     cx="124.47821"
     style="opacity:1;stroke-width:0.291149;stop-opacity:1" />
  <path
     id="path2120"
     fill="#2f2e41"
     d="m 119.28659,119.84284 a 4.8454013,4.8454013 0 0 1 4.32635,-4.81686 4.845509,4.845509 0 1 0 0,9.63372 4.8454042,4.8454042 0 0 1 -4.32635,-4.81686 z"
     inkscape:connector-curvature="0"
     style="opacity:1;stroke-width:0.291149;stop-opacity:1" />
  <path
     id="path2122"
     fill="#fa7327"
     d="m 119.63271,121.91949 c 0,0 -0.75255,3.46107 3.95007,4.8455"
     inkscape:connector-curvature="0"
     style="opacity:1;stroke-width:0.291149;stop-opacity:1" />
  <ellipse
     id="ellipse2124"
     fill="#a0616a"
     ry="1.8924665"
     rx="0.84109658"
     cy="136.60814"
     cx="113.83276"
     style="opacity:1;stroke-width:0.291149;stop-opacity:1" />
  <path
     id="path2126"
     fill="#d0cde1"
     d="m 21.002531,143.92939 -12.7665353,3.09308 -0.041593,0.01 -1.387769,1.25639 -0.3994269,0.36113 -0.8562945,-0.15514 -1.5158511,-0.27399 1.0563399,-3.56515 0.1980655,-6.8002 -0.7262355,-4.15935 4.0272997,-2.7729 c 0,0 7.8565262,-0.46212 12.4120012,13.00622 z"
     inkscape:connector-curvature="0"
     style="opacity:1;stroke-width:0.291149;stop-opacity:1" />
  <path
     id="path2128"
     opacity="0.1"
     d="m 8.2359869,147.02247 c -0.1729744,0.36907 0.1894825,0.12545 -0.00859,0.50508 l -1.8485962,0.59418 -0.8279046,0.37302 -1.5158511,-0.27398 1.0563398,-3.56515 0.1980656,-6.80019 -0.7262354,-4.15936 4.0272996,-2.7729 c 0,0 4.3224114,6.12151 -0.3545347,16.0993 z"
     inkscape:connector-curvature="0"
     style="stroke-width:0.291149;stop-opacity:1" />
  <path
     id="path2130"
     fill="#d0cde1"
     d="m 36.055375,134.15823 c 0,0 -16.769404,7.79052 -23.569598,8.9789 -6.8001943,1.18838 -6.2060007,7.98857 -6.2060007,7.98857 l 38.0942817,-5.94191 c 0,0 -1.320426,-6.13998 -8.318683,-11.02556 z"
     inkscape:connector-curvature="0"
     style="opacity:1;stroke-width:0.291149;stop-opacity:1" />
  <path
     id="path2132"
     fill="#fa7327"
     d="m 3.7049476,132.83781 c 0,0 2.9049361,7.06427 -0.3301073,15.84511 l 3.7632133,1.71655 1.452468,-1.71655 0.03301,-0.16506 -3.9942892,-0.36311 c 0,0 3.3010642,-8.84685 0.5941937,-14.98684 0,0 -0.5941937,-1.32042 -1.5184885,-0.3301 z"
     inkscape:connector-curvature="0"
     style="opacity:1;stroke-width:0.291149;stop-opacity:1" />
  <path
     id="path2134"
     fill="#fa7327"
     d="m 59.096804,185.19268 c -14.85479,-3.30106 -28.686248,3.53214 -28.686248,3.53214 l -0.03764,-0.0337 -5.508154,-4.91792 -21.5229374,-35.12332 5.2486917,0.033 c 14.5907047,-8.71481 35.1233227,-7.52643 35.1233227,-7.52643 8.846852,10.03524 15.38296,44.0362 15.38296,44.0362 z"
     inkscape:connector-curvature="0"
     style="opacity:1;stroke-width:0.291149;stop-opacity:1" />
  <path
     id="path2136"
     opacity="0.1"
     d="m 30.372922,188.69115 -5.508155,-4.91792 -21.5229371,-35.12333 5.2486917,0.033 c 0,0 20.9195024,27.62925 21.7824004,40.00824 z"
     inkscape:connector-curvature="0"
     style="stroke-width:0.291149;stop-opacity:1" />
  <ellipse
     id="ellipse2138"
     fill="#d0cde1"
     transform="rotate(-17.051851)"
     ry="5.4137444"
     rx="8.5167456"
     cy="158.39748"
     cx="-15.946176"
     style="opacity:1;stroke-width:0.291149;stop-opacity:1" />
</svg>
