<?xml version="1.0" encoding="UTF-8" standalone="no"?>
<svg
   xmlns:dc="http://purl.org/dc/elements/1.1/"
   xmlns:cc="http://creativecommons.org/ns#"
   xmlns:rdf="http://www.w3.org/1999/02/22-rdf-syntax-ns#"
   xmlns:svg="http://www.w3.org/2000/svg"
   xmlns="http://www.w3.org/2000/svg"
   xmlns:sodipodi="http://sodipodi.sourceforge.net/DTD/sodipodi-0.dtd"
   xmlns:inkscape="http://www.inkscape.org/namespaces/inkscape"
   version="1.1"
   id="svg1082"
   sodipodi:docname="chef.svg"
   width="224.9971"
   height="313.43039"
   inkscape:version="1.0beta1 (060977b, 2019-10-14)">
  <metadata
     id="metadata1086">
    <rdf:RDF>
      <cc:Work
         rdf:about="">
        <dc:format>image/svg+xml</dc:format>
        <dc:type
           rdf:resource="http://purl.org/dc/dcmitype/StillImage" />
        <dc:title />
      </cc:Work>
    </rdf:RDF>
  </metadata>
  <sodipodi:namedview
     pagecolor="#ffffff"
     bordercolor="#666666"
     inkscape:document-rotation="0"
     borderopacity="1"
     objecttolerance="10"
     gridtolerance="10"
     guidetolerance="10"
     inkscape:pageopacity="0"
     inkscape:pageshadow="2"
     inkscape:window-width="1440"
     inkscape:window-height="817"
     id="namedview1084"
     showgrid="false"
     inkscape:zoom="1"
     inkscape:cx="325.8784"
     inkscape:cy="252.84959"
     inkscape:window-x="0"
     inkscape:window-y="23"
     inkscape:window-maximized="0"
     inkscape:current-layer="svg1082" />
  <defs
     id="defs846">
    <style
       id="style833">.cls-3{fill:#d5d3d0}.cls-4{fill:#505b65}.cls-5{fill:#f7f2ed}.cls-6{fill:url(#linear-gradient)}.cls-7{fill:#a6a9ab}.cls-8{fill:#f4a110}.cls-9{fill:#888b8c}.cls-10{fill:#fff;opacity:.8}</style>
    <clipPath
       id="clip-path">
      <path
         id="Rectangle_39"
         data-name="Rectangle 39"
         transform="translate(980,1408)"
         fill="currentColor"
         d="M 0,0 H 227 V 316 H 0 Z"
         inkscape:connector-curvature="0" />
    </clipPath>
    <linearGradient
       id="linear-gradient"
       x1="0.106"
       y1="0.50099999"
       x2="1.105"
       y2="0.50099999"
       gradientUnits="objectBoundingBox">
      <stop
         offset="0"
         stop-color="#c3bae9"
         id="stop837" />
      <stop
         offset=".024"
         stop-color="#b8aee6"
         id="stop839" />
      <stop
         offset=".184"
         stop-color="#ada2e2"
         id="stop841" />
      <stop
         offset="1"
         stop-color="#7b67d0"
         id="stop843" />
    </linearGradient>
    <linearGradient
       gradientUnits="userSpaceOnUse"
       y2="154.92035"
       x2="507.94699"
       y1="790.48083"
       x1="507.94699"
       id="ef5d85de-35d2-4357-9719-f86a6844cb01"
       gradientTransform="matrix(0.45245797,0,0,0.45245797,-109.10247,-45.808158)">
      <stop
         id="stop1310"
         stop-opacity="0.25"
         stop-color="gray"
         offset="0" />
      <stop
         id="stop1312"
         stop-opacity="0.12"
         stop-color="gray"
         offset="0.53514" />
      <stop
         id="stop1314"
         stop-opacity="0.1"
         stop-color="gray"
         offset="1" />
    </linearGradient>
    <style
       id="style833-4">.cls-3{fill:#d5d3d0}.cls-4{fill:#505b65}.cls-5{fill:#f7f2ed}.cls-6{fill:url(#linear-gradient)}.cls-7{fill:#a6a9ab}.cls-8{fill:#f4a110}.cls-9{fill:#888b8c}.cls-10{fill:#fff;opacity:.8}</style>
    <clipPath
       id="clip-path-8">
      <path
         inkscape:connector-curvature="0"
         d="M 0,0 H 227 V 316 H 0 Z"
         fill="currentColor"
         transform="translate(980,1408)"
         data-name="Rectangle 39"
         id="Rectangle_39-3" />
    </clipPath>
    <linearGradient
       gradientTransform="matrix(0.45245797,0,0,0.45245797,-109.50739,-46.890895)"
       id="ef5d85de-35d2-4357-9719-f86a6844cb01-2"
       x1="507.94699"
       y1="790.48083"
       x2="507.94699"
       y2="154.92035"
       gradientUnits="userSpaceOnUse">
      <stop
         offset="0"
         stop-color="gray"
         stop-opacity="0.25"
         id="stop1310-7" />
      <stop
         offset="0.53514"
         stop-color="gray"
         stop-opacity="0.12"
         id="stop1312-3" />
      <stop
         offset="1"
         stop-color="gray"
         stop-opacity="0.1"
         id="stop1314-7" />
    </linearGradient>
    <style
       id="style833-2">.cls-3{fill:#d5d3d0}.cls-4{fill:#505b65}.cls-5{fill:#f7f2ed}.cls-6{fill:url(#linear-gradient)}.cls-7{fill:#a6a9ab}.cls-8{fill:#f4a110}.cls-9{fill:#888b8c}.cls-10{fill:#fff;opacity:.8}</style>
    <clipPath
       id="clip-path-4">
      <path
         inkscape:connector-curvature="0"
         d="M 0,0 H 227 V 316 H 0 Z"
         fill="currentColor"
         transform="translate(980,1408)"
         data-name="Rectangle 39"
         id="Rectangle_39-5" />
    </clipPath>
    <linearGradient
       gradientTransform="matrix(0.51824078,0,0,0.51824078,232.656,61.927545)"
       id="ef5d85de-35d2-4357-9719-f86a6844cb01-6"
       x1="507.94698"
       y1="790.48086"
       x2="507.94698"
       y2="154.92035"
       gradientUnits="userSpaceOnUse">
      <stop
         offset="0"
         stop-color="gray"
         stop-opacity="0.25"
         id="stop1180" />
      <stop
         offset="0.53514"
         stop-color="gray"
         stop-opacity="0.12"
         id="stop1182" />
      <stop
         offset="1"
         stop-color="gray"
         stop-opacity="0.1"
         id="stop1184" />
    </linearGradient>
  </defs>
  <g
     transform="translate(0.68763039,1.8872644e-6)"
     id="g1670">
    <ellipse
       id="ellipse1321"
       opacity="0.1"
       fill="#fa7327"
       ry="5.2246952"
       rx="110.82724"
       cy="307.12296"
       cx="112.49855"
       style="opacity:1;fill:#3f3d56;fill-opacity:1;stroke-width:0.393405;stop-opacity:1" />
    <path
       id="path1323"
       opacity="0.1"
       fill="#fa7327"
       d="M 70.949246,10.568164 C 78.402676,2.245652 90.10211,0.54947754 100.75144,1.2124371 c 33.44928,2.0823382 63.64378,22.3170909 89.76173,45.2048949 9.45503,8.285677 18.76416,17.215189 24.90158,28.625323 12.49379,23.227383 8.78777,55.404795 -8.58515,74.540025 -5.91076,6.51034 -13.07623,11.50123 -20.43233,15.92543 -13.07944,7.86643 -27.19199,14.18149 -42.03697,15.97884 -10.58614,1.2817 -21.30249,0.23973 -31.82667,-1.54869 C 83.129824,174.94152 54.267931,163.89264 30.077436,144.98894 19.467609,136.69788 9.4672471,126.3902 5.0940528,112.9774 0.72085747,99.564601 3.5196434,82.567896 14.353377,74.62876 c 4.480724,-3.283546 9.837978,-4.766531 15.08298,-6.159016 7.720328,-2.049662 15.564518,-4.070221 22.531514,-8.23716 C 59.163876,55.928682 67.684684,47.605636 66.259901,38.079337 64.731119,27.857881 63.50454,18.880934 70.949246,10.568164 Z"
       inkscape:connector-curvature="0"
       style="stroke-width:0.404202;stop-opacity:1" />
    <path
       id="path1327"
       fill="url(#ef5d85de-35d2-4357-9719-f86a6844cb01)"
       d="m 165.49623,119.12631 c -0.63842,-1.23566 -4.01281,-8.91446 -4.01281,-8.91446 l -5.65439,-14.651493 c 0,0 -4.01278,-6.178313 -4.01278,-7.325724 0,-1.147411 -7.29597,-5.737022 -7.29597,-5.737022 0,0 -5.92798,-1.76522 -6.38399,-1.941764 -0.45601,-0.176545 -7.47837,-2.499586 -7.47837,-2.499586 0,0 -2.76521,-3.636373 -3.15914,-2.686664 l -3.4e-4,0.0023 c -0.0144,-0.02398 -0.0291,-0.04484 -0.0434,-0.06948 a 9.3886929,9.3886929 0 0 1 -1.05423,-3.399837 c -0.015,-0.105731 -0.0279,-0.21737 -0.0413,-0.32758 a 13.533339,13.533339 0 0 0 5.94005,-11.14294 13.352356,13.352356 0 0 0 -0.11674,-1.732082 1.2143972,1.2143972 0 0 1 0.15686,-0.0826 c 0.11349,-0.04929 0.0847,-0.08937 0.001,-0.131213 0.0286,-0.01498 0.0571,-0.0309 0.0858,-0.04312 0.15101,-0.06561 0.0502,-0.115273 -0.096,-0.174296 l 0.009,-0.0045 c 0.20575,-0.0894 -0.0544,-0.148615 -0.26341,-0.243142 -0.0112,-0.06108 -0.0218,-0.122372 -0.0338,-0.183173 a 1.2318666,1.2318666 0 0 0 0.0838,-0.363686 c 0.0186,0.0092 0.0355,0.01918 0.0551,0.02774 a 1.5448137,1.5448137 0 0 0 -0.004,-0.690397 1.214275,1.214275 0 0 1 -0.0475,0.135602 1.1524738,1.1524738 0 0 0 -0.5309,-1.044843 c -0.0104,-0.0091 -0.022,-0.01896 -0.0327,-0.02819 l 0.38685,-3.959618 c 5.70305,-0.269521 6.70357,-9.972228 5.4029,-10.511264 -1.30068,-0.539036 0,-1.706952 0,-4.042803 0,-2.33585 -4.30233,-4.941194 -4.30233,-4.941194 0,0 -1.80096,0.898419 -4.60245,-3.593575 -2.80149,-4.491993 -13.10703,-5.210714 -13.8074,-4.042802 -0.70036,1.167912 -5.30284,2.695211 -11.30605,4.402158 -6.003212,1.706948 -4.90264,8.804316 -3.90212,10.331588 a 8.717001,8.717001 0 0 1 1.40076,4.222478 c 0,0.898392 1.90101,4.671629 1.90101,4.671629 -0.59956,1.307513 0.92633,8.470257 1.37824,10.506024 -0.007,0.06257 -0.0147,0.124928 -0.0209,0.18777 -0.004,0.0062 -0.009,0.01136 -0.0126,0.0176 a 0.95879011,0.95879011 0 0 0 -0.0584,0.102377 1.1715856,1.1715856 0 0 0 -0.0922,0.675253 1.4103975,1.4103975 0 0 0 0.10126,0.737882 13.464317,13.464317 0 0 0 4.77455,10.045563 c 0.007,0.122484 0.0141,0.245802 0.0208,0.37192 0.0839,1.662851 0.13135,3.629333 0.0438,5.511078 -0.005,0.09627 -0.0117,0.190549 -0.017,0.286352 a 2.1534013,2.1534013 0 0 0 -1.52614,1.203497 c -0.56543,1.087393 -3.84864,2.764387 -3.84864,2.764387 0,0 -5.745582,0.264774 -6.292758,1.323933 -0.547175,1.059159 -8.846399,4.589603 -8.846399,4.589603 0,0 -4.377563,2.559604 -3.73919,5.472243 0.333575,1.521942 -0.602859,3.886366 -1.573088,5.798204 a 27.53528,27.53528 0 0 0 -6.29583,-1.569844 l 4.649367,4.447981 c -0.09741,0.15205 -0.154817,0.2381 -0.154817,0.2381 l -2.644807,9.35575 c 0,0 -0.911988,3.2657 -1.82398,4.06005 -0.911993,0.79435 0.820795,8.03182 0.820795,8.03182 0,0 -1.003217,5.11921 -1.824008,6.44314 -0.82079,1.32393 1.276801,4.5896 1.276801,4.5896 l 4.19519,9.53227 11.126358,2.82438 c 0,0 0.741433,0.15688 1.939569,0.41347 q -0.05649,0.34171 -0.115589,0.68095 c -0.536226,3.03623 -1.240319,5.82883 -2.097568,6.58435 -2.097595,1.85351 -2.006402,10.1501 -2.006402,10.1501 l 0.0912,11.73884 c 0,0 0.729598,14.47493 0.364785,15.00451 -0.230256,0.33426 0.231831,0.87937 1.451033,1.36923 -0.03489,0.21787 -0.06907,0.4389 -0.101287,0.66432 -0.342887,2.40074 -0.496075,5.14037 0.291876,6.35133 a 4.8252742,4.8252742 0 0 1 0.547175,2.11829 c 0,1.14743 1.732815,3.53047 1.732815,3.53047 0,0 -1.368002,9.79708 0.911988,13.151 2.27999,3.35393 4.19519,9.44404 3.100785,10.85623 0,0 -1.915178,4.14831 -1.003186,6.0018 0.911993,1.85348 0,2.91263 -1.185607,3.35395 -1.185607,0.44133 -1.083433,4.06005 -1.083433,4.06005 l 2.177843,17.21105 c 0,0 1.18558,3.53048 0.182395,4.76615 -1.003186,1.23568 -1.00319,7.41398 0.547202,9.53227 1.550393,2.11829 -2.188792,6.00179 -2.188792,6.00179 0,0 -2.27999,3.2657 1.367997,4.32486 0,0 0.729602,0.17652 -0.638418,1.5887 -1.36802,1.41219 -1.64159,3.17742 -0.729597,3.79525 a 4.1738886,4.1738886 0 0 0 0.591543,0.29388 c -0.03384,0.20919 -0.07051,0.42589 -0.113639,0.65583 -0.350252,1.84286 -1.010493,4.24361 -2.21071,5.40515 a 38.531244,38.531244 0 0 0 -5.971744,7.95768 c -1.251263,2.37249 -1.79847,4.59315 -0.412216,5.63464 3.28318,2.47135 7.478375,3.2657 9.940755,2.2948 2.462383,-0.9709 5.927973,-3.97176 5.927973,-3.97176 l 0.82079,-3.44222 c 0,0 -0.54717,-2.11828 2.1888,-2.91264 2.73597,-0.79435 5.28961,-3.61873 5.28961,-3.61873 v -4.57539 a 19.38934,19.38934 0 0 0 1.91517,-1.24985 c 0,0 1.2768,-4.50138 0,-6.00182 -1.2768,-1.50045 -1.73278,-2.03003 -0.0912,-3.0009 1.64159,-0.97087 1.86412,-3.08915 0.6603,-4.94265 -1.20751,-1.85351 -3.12268,-4.5896 -1.4811,-8.47314 1.64159,-3.88354 2.24354,-15.79887 2.24354,-15.79887 0,0 -0.76609,-8.1201 0,-9.97358 0.76608,-1.85348 -0.87554,-5.5605 -0.87554,-5.5605 0,0 0.54721,-4.58964 1.5504,-6.70792 1.00319,-2.11828 1.824,-13.32752 1.824,-13.32752 0,0 1.82398,-4.76614 1.82398,-7.8553 0,-3.08915 -2.82719,-10.50317 1.368,-12.44493 0,0 1.82399,1.5887 1.09438,7.94356 0,0 2.0976,7.41401 2.0976,9.70881 0,2.29481 1.55039,10.59142 1.55039,10.59142 0,0 0.18242,2.64787 0.8208,3.61876 0.63837,0.97089 0,3.61873 0,3.61873 0,0 2.37121,2.20655 1.73281,3.61873 -0.63841,1.41219 0.10945,4.59668 0.10945,4.59668 l -0.56546,19.76359 c 0,0 -1.64159,8.47314 2.18879,13.59235 0,0 -1.368,7.50224 -2.18879,8.03182 -0.8208,0.52957 3.00959,5.11918 3.00959,5.11918 0,0 -1.06168,2.97327 1.09441,3.11903 v 4.91278 a 10.49612,10.49612 0 0 0 3.00959,3.35396 c 2.0064,1.41219 1.18558,6.2666 1.18558,6.2666 0,0 2.5536,6.17833 9.30237,4.85442 6.74878,-1.32391 7.6608,-1.94177 7.29598,-4.14831 -0.13132,-0.80492 -0.42313,-2.24185 -0.84269,-3.87294 -0.72596,-2.83495 -1.83856,-6.256 -3.17008,-7.94356 -2.09759,-2.65843 -3.83041,-8.21893 -3.83041,-8.21893 0,0 -0.82079,-1.85351 0,-2.47133 0.8208,-0.61781 0.45601,-1.76522 0.45601,-1.76522 0,0 0.7989,-2.2948 0.0803,-3.70699 -0.71865,-1.41219 1.37895,-4.32486 1.37895,-4.32486 l -0.63842,-13.59232 0.63842,-19.77063 c 0,0 -2.8272,-3.2657 -1.64159,-5.20747 1.1856,-1.94177 -1.368,-4.67786 -1.368,-4.67786 0,0 -0.27359,-0.0883 0.45601,-2.29483 a 5.499966,5.499966 0 0 0 -0.18242,-3.97176 c 0,0 -1.5504,-5.47225 1.1856,-9.62056 0,0 1.18561,-5.47222 1.5504,-8.29659 0.25169,-1.96296 1.82765,-9.29575 2.7652,-13.58531 q 0.0795,-0.36363 0.15241,-0.69627 c 1.35049,0.0738 2.37196,0.15968 2.37196,0.15968 0,0 -2.09759,-14.56322 0,-17.56412 2.0976,-3.00089 -1.64159,-25.94899 -1.64159,-25.94899 0,0 -0.89373,-4.01059 -1.44457,-8.10244 -0.0315,-0.23313 -0.0601,-0.46606 -0.0892,-0.69899 a 44.208917,44.208917 0 0 1 5.09053,-0.11301 c 4.37758,0.26478 8.66398,-1.41218 8.75517,-3.08918 0.0912,-1.67699 2.46238,-8.29659 2.8272,-9.79704 0.36482,-1.50045 0.63841,-6.61973 1e-5,-7.85538 z"
       inkscape:connector-curvature="0"
       style="opacity:1;fill:url(#ef5d85de-35d2-4357-9719-f86a6844cb01);stroke-width:0.452458;stop-opacity:1" />
    <path
       id="path1329"
       fill="#4c495a"
       d="m 112.28114,289.39349 v 8.17256 c 0,0 -2.46055,2.81207 -5.09687,3.60296 -2.63631,0.79089 -2.10905,2.89994 -2.10905,2.89994 l -0.79089,3.42721 c 0,0 -3.33933,2.98782 -5.712006,3.95448 -2.37268,0.96666 -6.415026,0.17576 -9.578598,-2.2848 -1.335747,-1.03696 -0.808484,-3.24793 0.397208,-5.61008 a 38.26342,38.26342 0 0 1 5.754184,-7.92299 c 1.156483,-1.15648 1.792684,-3.54673 2.130172,-5.38159 0.249558,-1.37441 0.330394,-2.43947 0.330394,-2.43947 z"
       inkscape:connector-curvature="0"
       style="opacity:1;stroke-width:0.452458;stop-opacity:1" />
    <path
       id="path1331"
       opacity="0.1"
       d="m 112.28114,295.49214 v 2.07391 c 0,0 -2.46055,2.81207 -5.09687,3.60296 -2.63631,0.79089 -2.10905,2.89994 -2.10905,2.89994 l -0.79089,3.42721 c 0,0 -3.33933,2.98782 -5.712006,3.95448 -2.37268,0.96666 -6.415026,0.17576 -9.578598,-2.2848 -1.335747,-1.03696 -0.808484,-3.24793 0.397208,-5.61008 -0.05625,2.48165 0.678429,5.2691 4.260276,5.17069 a 18.145343,18.145343 0 0 0 10.63312,-3.86659 c 0,0 -0.0879,-5.79989 3.95448,-7.11804 a 12.312789,12.312789 0 0 0 4.04233,-2.24968 z"
       inkscape:connector-curvature="0"
       style="stroke-width:0.452458;stop-opacity:1" />
    <path
       id="path1333"
       fill="#4c495a"
       d="m 144.44412,310.30822 c -6.50291,1.31816 -8.96346,-4.83324 -8.96346,-4.83324 0,0 0.79089,-4.83323 -1.1424,-6.23927 a 10.370414,10.370414 0 0 1 -2.89995,-3.33933 v -8.08468 l 7.90894,-5.62413 4.28134,3.78924 0.28826,0.2531 c 0,0 1.66967,5.53626 3.69084,8.1831 1.28301,1.68022 2.35509,5.08633 3.05458,7.90893 0.40429,1.62397 0.68548,3.05461 0.81201,3.85606 0.35152,2.19693 -0.52725,2.81207 -7.03016,4.13022 z"
       inkscape:connector-curvature="0"
       style="opacity:1;stroke-width:0.452458;stop-opacity:1" />
    <path
       id="path1335"
       opacity="0.1"
       d="m 144.44412,310.30822 c -6.50291,1.31816 -8.96346,-4.83324 -8.96346,-4.83324 0,0 0.79089,-4.83323 -1.1424,-6.23927 a 10.370414,10.370414 0 0 1 -2.89995,-3.33933 v -3.13194 c 1.25491,1.32519 3.62057,3.8912 4.13022,4.97737 0.70302,1.4939 0.7909,6.94228 4.04235,7.90893 3.25145,0.96665 9.5786,1.84542 10.10586,-0.61514 a 13.709476,13.709476 0 0 1 0.94553,-2.71366 c 0.40429,1.62397 0.68548,3.05461 0.81201,3.85606 0.35152,2.19693 -0.52725,2.81207 -7.03016,4.13022 z"
       inkscape:connector-curvature="0"
       style="stroke-width:0.452458;stop-opacity:1" />
    <path
       id="path1337"
       opacity="0.1"
       d="m 97.60567,287.8117 14.67547,1.58179 v 4.32003 c -1.65559,0.9807 -4.02827,2.02117 -5.3605,0.95259 -1.96843,-1.57477 -7.821053,-3.57487 -9.645359,-4.41494 0.249549,-1.37441 0.330389,-2.43947 0.330389,-2.43947 z"
       inkscape:connector-curvature="0"
       style="stroke-width:0.452458;stop-opacity:1" />
    <path
       id="path1339"
       opacity="0.1"
       d="m 143.91687,286.93293 c -2.02117,-0.70302 -5.62413,2.37269 -10.36949,4.30597 a 4.9396827,4.9396827 0 0 1 -2.10905,0.47101 v -3.89821 l 7.90893,-5.62413 4.28135,3.78924 a 5.3451168,5.3451168 0 0 0 0.28826,0.95612 z"
       inkscape:connector-curvature="0"
       style="stroke-width:0.452458;stop-opacity:1" />
    <path
       id="path1341"
       fill="#5f5d7e"
       d="m 149.10162,190.1803 c 0,0 -0.27771,1.29355 -0.67487,3.17059 -0.9034,4.27084 -2.42194,11.57167 -2.66446,13.52605 -0.35151,2.81207 -1.49391,8.26044 -1.49391,8.26044 -2.63632,4.13022 -1.1424,9.5786 -1.1424,9.5786 a 5.6410605,5.6410605 0 0 1 0.17575,3.95448 c -0.70302,2.19693 -0.43939,2.28481 -0.43939,2.28481 0,0 2.46056,2.72419 1.31816,4.65748 -1.1424,1.9333 1.58179,5.18475 1.58179,5.18475 l -0.61514,19.68446 0.61514,13.53306 c 0,0 -2.02117,2.89994 -1.32871,4.30597 0.69246,1.40603 -0.0773,3.69084 -0.0773,3.69084 0,0 0.3515,1.1424 -0.43939,1.75754 -0.79089,0.61514 0,2.46056 0,2.46056 -2.02117,-0.70302 -5.62413,2.37269 -10.36949,4.30598 -4.74536,1.93328 -3.16358,-2.63632 -3.16358,-2.63632 0,0 -3.69084,-4.5696 -2.89995,-5.09686 0.79089,-0.52727 2.10905,-7.99681 2.10905,-7.99681 -3.69084,-5.09688 -2.10905,-13.53307 -2.10905,-13.53307 l 0.54486,-19.67744 c 0,0 -0.72061,-3.17059 -0.10547,-4.57662 0.61514,-1.40602 -1.66967,-3.60296 -1.66967,-3.60296 0,0 0.61514,-2.63631 0,-3.60296 -0.61514,-0.96664 -0.79089,-3.60295 -0.79089,-3.60295 0,0 -1.49391,-8.26044 -1.49391,-10.54525 0,-2.2848 -2.02117,-9.66647 -2.02117,-9.66647 0.70302,-6.32717 -1.05453,-7.90894 -1.05453,-7.90894 -4.04234,1.9333 -1.31815,9.31497 -1.31815,12.39067 0,3.07569 -1.75754,7.82105 -1.75754,7.82105 0,0 -0.7909,11.16039 -1.75754,13.26944 -0.96665,2.10904 -1.49392,6.67865 -1.49392,6.67865 0,0 1.5818,3.69084 0.84363,5.53628 -0.73816,1.84544 0,9.93009 0,9.93009 0,0 -0.57999,11.8634 -2.16178,15.72999 -1.58179,3.8666 0.26363,6.59078 1.42714,8.4362 1.15996,1.84542 0.94554,3.95448 -0.63624,4.92111 -1.58179,0.96663 -1.14241,1.49391 0.0879,2.98782 1.23028,1.49392 0,5.97564 0,5.97564 0,0 -5.00899,3.95449 -7.20592,2.19693 -2.19692,-1.75756 -9.227082,-4.04234 -10.105855,-4.65748 -0.878773,-0.61514 -0.615139,-2.37269 0.703015,-3.77872 1.318155,-1.40603 0.61514,-1.58179 0.61514,-1.58179 -3.515083,-1.05453 -1.318155,-4.30598 -1.318155,-4.30598 0,0 3.602955,-3.86659 2.109051,-5.97564 -1.493907,-2.10904 -1.493912,-8.26044 -0.527263,-9.49072 0.96665,-1.23028 -0.175757,-4.74538 -0.175757,-4.74538 l -2.0985,-17.13602 c 0,0 -0.09843,-3.60296 1.04397,-4.04235 1.142402,-0.43938 2.02117,-1.4939 1.142402,-3.33932 -0.878769,-1.84542 0.966645,-5.97564 0.966645,-5.97564 1.054527,-1.40604 -0.790897,-7.46955 -2.98782,-10.80888 -2.196923,-3.33932 -0.878769,-13.09368 -0.878769,-13.09368 0,0 -1.669664,-2.37269 -1.669664,-3.51508 a 4.9240186,4.9240186 0 0 0 -0.527263,-2.10905 c -0.759225,-1.20567 -0.611619,-3.93338 -0.281226,-6.32363 0.319888,-2.31293 0.808489,-4.30949 0.808489,-4.30949 z"
       inkscape:connector-curvature="0"
       style="opacity:1;stroke-width:0.452458;stop-opacity:1" />
    <path
       id="path1343"
       fill="#fdc2cc"
       d="m 131.87771,90.615612 -17.31178,4.042345 c 0,0 -8.52407,-7.205918 -6.41502,-11.072511 0.72413,-1.32871 1.04397,-3.595941 1.15296,-5.993208 0.0844,-1.873547 0.0386,-3.83145 -0.0422,-5.487062 -0.12298,-2.393769 -0.31985,-4.161844 -0.31985,-4.161844 0,0 17.75117,-10.017981 17.13602,0 a 25.58834,25.58834 0 0 0 0.11603,5.005475 9.5695223,9.5695223 0 0 0 1.01582,3.385023 c 0.94906,1.690754 2.11961,1.715363 2.11961,1.715363 z"
       inkscape:connector-curvature="0"
       style="opacity:1;stroke-width:0.452458;stop-opacity:1" />
    <path
       id="path1345"
       opacity="0.1"
       d="m 126.19385,72.948802 a 13.615257,13.615257 0 0 1 -16.9322,-0.84363 c -0.12298,-2.39377 -0.31985,-4.161845 -0.31985,-4.161845 0,0 17.75117,-10.01798 17.13603,0 a 25.58834,25.58834 0 0 0 0.11602,5.005475 z"
       inkscape:connector-curvature="0"
       style="stroke-width:0.452458;stop-opacity:1" />
    <circle
       id="circle1347"
       fill="#fdc2cc"
       r="13.620944"
       cy="61.528305"
       cx="118.25677"
       style="opacity:1;stroke-width:0.452458;stop-opacity:1" />
    <path
       id="path1349"
       opacity="0.1"
       d="m 131.87771,90.615612 -17.31178,4.042345 c 0,0 -8.52407,-7.205918 -6.41502,-11.072511 0.72413,-1.32871 1.04397,-3.595941 1.15296,-5.993208 a 8.8317352,8.8317352 0 0 0 3.15302,5.290193 c 3.95448,2.63631 3.33932,5.887763 3.33932,5.887763 l 7.11804,-0.263634 c -0.43938,-2.899939 2.19693,-4.481727 3.0757,-4.833237 0.87877,-0.35151 0.43939,-1.933294 0.43939,-1.933294 l 0.78033,-5.406199 c 0.94906,1.690754 2.11961,1.715363 2.11961,1.715363 z"
       inkscape:connector-curvature="0"
       style="stroke-width:0.452458;stop-opacity:1" />
    <path
       id="path1351"
       opacity="0.1"
       d="m 149.10162,190.1803 c 0,0 -0.27771,1.29355 -0.67487,3.17059 -1.91223,-0.10193 -4.4396,-0.17575 -5.56441,0.0809 -1.93329,0.43939 -9.66647,0.61514 -9.66647,0.61514 l -19.1572,0.6784 v -0.59053 a 56.484346,56.484346 0 0 0 -6.59077,0.43939 c -3.25146,0.43938 -8.348304,-0.17576 -11.599775,-0.70302 a 12.490252,12.490252 0 0 1 -2.917535,-0.78738 c 0.319887,-2.31293 0.808488,-4.30949 0.808488,-4.30949 z"
       inkscape:connector-curvature="0"
       style="stroke-width:0.452458;stop-opacity:1" />
    <path
       id="path1353"
       fill="#fa7327"
       d="m 147.6077,134.37838 c -0.2777,1.64154 -0.0738,4.3622 0.27771,7.04773 0.53078,4.07399 1.39196,8.06712 1.39196,8.06712 0,0 3.60296,22.84803 1.58179,25.83585 -2.02116,2.98782 0,17.48753 0,17.48753 0,0 -6.06351,-0.52726 -7.99681,-0.0879 -1.93329,0.43938 -9.66647,0.61514 -9.66647,0.61514 l -19.1572,0.6784 v -0.59053 a 56.484346,56.484346 0 0 0 -6.59077,0.43939 c -3.25146,0.43938 -8.348305,-0.17576 -11.599776,-0.70302 -3.251472,-0.52726 -4.569604,-1.58179 -4.218094,-2.10905 0.35151,-0.52726 -0.35151,-14.9391 -0.35151,-14.9391 L 91.19065,164.4323 c 0,0 -0.08788,-8.26045 1.933294,-10.10586 0.826035,-0.75223 1.504464,-3.53266 2.021171,-6.55564 0.741678,-4.37628 1.142402,-9.26223 1.142402,-9.26223 l -13.357321,-35.76593 -0.263629,-0.70301 c 0,0 3.866588,-5.975646 3.251449,-8.875589 -0.615139,-2.899944 3.602959,-5.448377 3.602959,-5.448377 0,0 7.99681,-3.515083 8.524073,-4.569608 0.527263,-1.054526 6.063512,-1.318155 6.063512,-1.318155 0,0 3.16359,-1.669661 3.70843,-2.752302 a 2.0784471,2.0784471 0 0 1 1.4728,-1.198634 8.8502227,8.8502227 0 0 0 3.16709,5.356985 c 3.95448,2.63631 3.33933,5.887759 3.33933,5.887759 l 7.11804,-0.26363 c -0.43938,-2.899943 2.19693,-4.481727 3.07569,-4.833237 0.87877,-0.35151 0.43939,-1.933294 0.43939,-1.933294 l 0.82257,-5.690921 c 0.37957,-0.945556 3.04403,2.674972 3.04403,2.674972 0,0 6.76653,2.312933 7.20592,2.488686 0.43938,0.175753 6.15139,1.933294 6.15139,1.933294 0,0 7.03016,4.569608 7.03016,5.712011 0,1.142402 3.8666,7.293794 3.8666,7.293794 0,0 -0.0457,0.24606 -0.13006,0.695975 -0.89281,4.843781 -6.16895,33.400301 -6.81224,37.179021 z"
       inkscape:connector-curvature="0"
       style="opacity:1;stroke-width:0.452458;stop-opacity:1" />
    <path
       id="path1355"
       fill="#fdc2cc"
       d="m 119.48705,120.1423 c 0,0 -15.20273,-4.04235 -16.69664,-5.009 -1.49391,-0.96665 -10.281611,4.65749 0.43939,12.30279 0,0 13.10968,2.72418 16.61676,0 3.50708,-2.72419 -0.35951,-7.29379 -0.35951,-7.29379 z"
       inkscape:connector-curvature="0"
       style="opacity:1;stroke-width:0.452458;stop-opacity:1" />
    <path
       id="path1357"
       opacity="0.1"
       d="m 152.35308,96.063984 1.84542,0.08788 5.44838,14.587586 c 0,0 3.25145,7.64531 3.86659,8.87559 0.61513,1.23027 0.35151,6.32714 0,7.82105 -0.35151,1.49391 -2.63631,8.08469 -2.72419,9.75435 -0.0879,1.66967 -4.2181,3.33933 -8.4362,3.0757 -4.2181,-0.26363 -14.06032,1.05453 -14.06032,1.05453 0,0 -10.51119,-1.09865 -16.96027,2.19692 0,0 -4.13022,-8.52407 -3.69084,-24.42982 0,0 7.2938,-0.43938 9.1392,0.26363 1.8454,0.70302 10.80888,2.72419 11.95128,1.66967 1.14239,-1.05453 6.32717,1.93329 6.32717,1.93329 a 4.4536614,4.4536614 0 0 0 0,-3.69083 c -0.87878,-2.10905 -2.37269,-8.69983 -0.43939,-10.80888 1.9333,-2.10905 7.73317,-12.390662 7.73317,-12.390662 z"
       inkscape:connector-curvature="0"
       style="stroke-width:0.452458;stop-opacity:1" />
    <path
       id="path1359"
       opacity="0.1"
       d="m 147.88541,141.42611 c -4.36223,0.29528 -9.24117,0.94908 -9.24117,0.94908 0,0 -10.5101,-1.10022 -16.96027,2.19692 0,0 -4.13022,-8.52407 -3.69083,-24.42981 0,0 7.29379,-0.43939 9.1392,0.26363 1.8454,0.70301 10.80887,2.72419 11.95128,1.66966 1.1424,-1.05452 6.32714,1.9333 6.32714,1.9333 a 4.4536433,4.4536433 0 0 0 0,-3.69084 c -0.87877,-2.10905 -2.37269,-8.69982 -0.43938,-10.80888 1.93331,-2.10905 7.73318,-12.39066 7.73318,-12.39066 l 1.71536,0.08084 c -0.8928,4.84379 -6.16894,33.40031 -6.81221,37.17903 -0.27771,1.64154 -0.0738,4.3622 0.2777,7.04773 z"
       inkscape:connector-curvature="0"
       style="stroke-width:0.452458;stop-opacity:1" />
    <path
       id="path1361"
       fill="#fa7327"
       d="m 152.70457,96.415489 1.84542,0.08788 5.44838,14.587591 c 0,0 3.25145,7.6453 3.86659,8.87558 0.61514,1.23028 0.35151,6.32715 0,7.82106 -0.35151,1.49391 -2.63631,8.08469 -2.72419,9.75435 -0.0879,1.66966 -4.2181,3.33933 -8.4362,3.0757 -4.21809,-0.26363 -14.06033,1.05452 -14.06033,1.05452 0,0 -10.51118,-1.09864 -16.96027,2.19693 0,0 -4.13022,-8.52407 -3.69083,-24.42982 0,0 7.29379,-0.43938 9.1392,0.26363 1.8454,0.70302 10.80887,2.72419 11.95128,1.66967 1.1424,-1.05452 6.32714,1.93329 6.32714,1.93329 a 4.4536433,4.4536433 0 0 0 0,-3.69083 c -0.87877,-2.10906 -2.37269,-8.69984 -0.43938,-10.80888 1.93331,-2.10905 7.73319,-12.390672 7.73319,-12.390671 z"
       inkscape:connector-curvature="0"
       style="opacity:1;stroke-width:0.452458;stop-opacity:1" />
    <rect
       id="rect1363"
       fill="#dfe6f5"
       transform="rotate(-148.23485)"
       height="23.211189"
       width="2.5790193"
       y="-38.801434"
       x="-184.37482"
       style="opacity:1;stroke-width:0.452458;stop-opacity:1" />
    <ellipse
       id="ellipse1365"
       fill="#dfe6f5"
       transform="rotate(-58.23485)"
       ry="5.2096233"
       rx="7.4275823"
       cy="183.08533"
       cx="-10.019551"
       style="opacity:1;stroke-width:0.452458;stop-opacity:1" />
    <ellipse
       id="ellipse1367"
       opacity="0.1"
       transform="rotate(-58.23485)"
       ry="3.7394519"
       rx="5.3314977"
       cy="183.08533"
       cx="-10.019551"
       style="stroke-width:0.452458;stop-opacity:1" />
    <rect
       id="rect1369"
       fill="#53526b"
       transform="rotate(-148.23485)"
       height="14.442517"
       width="2.5790193"
       y="-50.664925"
       x="-184.37482"
       style="opacity:1;stroke-width:0.452458;stop-opacity:1" />
    <path
       id="path1371"
       fill="#fdc2cc"
       d="m 115.00532,139.651 5.3605,-1.49391 c 0,0 26.45099,0.70302 17.57541,-10.19373 0,0 -4.65749,-4.48174 -14.41184,-0.87878 -9.75435,3.60296 -12.47853,4.04235 -12.47853,4.04235 z"
       inkscape:connector-curvature="0"
       style="opacity:1;stroke-width:0.452458;stop-opacity:1" />
    <circle
       id="circle1373"
       opacity="0.1"
       r="1.0545257"
       cy="92.636787"
       cx="111.05085"
       style="stroke-width:0.452458;stop-opacity:1" />
    <circle
       id="circle1375"
       opacity="0.1"
       r="1.0545257"
       cy="92.021645"
       cx="129.15353"
       style="stroke-width:0.452458;stop-opacity:1" />
    <circle
       id="circle1377"
       fill="#fff"
       r="1.0545257"
       cy="92.285278"
       cx="111.05085"
       style="opacity:1;stroke-width:0.452458;stop-opacity:1" />
    <circle
       id="circle1379"
       opacity="0.1"
       r="1.0545257"
       cy="107.22438"
       cx="112.54477"
       style="stroke-width:0.452458;stop-opacity:1" />
    <circle
       id="circle1381"
       opacity="0.1"
       r="1.0545257"
       cy="106.16985"
       cx="129.68079"
       style="stroke-width:0.452458;stop-opacity:1" />
    <circle
       id="circle1383"
       fill="#fff"
       r="1.0545257"
       cy="106.87287"
       cx="112.54477"
       style="opacity:1;stroke-width:0.452458;stop-opacity:1" />
    <circle
       id="circle1385"
       opacity="0.1"
       r="1.0545257"
       cy="157.05664"
       cx="129.24141"
       style="stroke-width:0.452458;stop-opacity:1" />
    <circle
       id="circle1387"
       opacity="0.1"
       r="1.0545257"
       cy="157.05664"
       cx="115.36292"
       style="stroke-width:0.452458;stop-opacity:1" />
    <circle
       id="circle1389"
       fill="#fff"
       r="1.0545257"
       cy="156.70514"
       cx="129.24141"
       style="opacity:1;stroke-width:0.452458;stop-opacity:1" />
    <circle
       id="circle1391"
       opacity="0.1"
       r="1.0545257"
       cy="174.71393"
       cx="116.41745"
       style="stroke-width:0.452458;stop-opacity:1" />
    <circle
       id="circle1393"
       opacity="0.1"
       r="1.0545257"
       cy="173.65941"
       cx="129.68079"
       style="stroke-width:0.452458;stop-opacity:1" />
    <circle
       id="circle1395"
       fill="#fff"
       r="1.0545257"
       cy="174.36243"
       cx="116.41745"
       style="opacity:1;stroke-width:0.452458;stop-opacity:1" />
    <circle
       id="circle1397"
       fill="#fff"
       r="1.0545257"
       cy="156.70514"
       cx="115.36292"
       style="opacity:1;stroke-width:0.452458;stop-opacity:1" />
    <circle
       id="circle1399"
       fill="#fff"
       r="1.0545257"
       cy="173.30791"
       cx="129.68079"
       style="opacity:1;stroke-width:0.452458;stop-opacity:1" />
    <circle
       id="circle1401"
       fill="#fff"
       r="1.0545257"
       cy="91.670143"
       cx="129.15353"
       style="opacity:1;stroke-width:0.452458;stop-opacity:1" />
    <circle
       id="circle1403"
       fill="#fff"
       r="1.0545257"
       cy="105.81834"
       cx="129.68079"
       style="opacity:1;stroke-width:0.452458;stop-opacity:1" />
    <path
       id="path1405"
       opacity="0.1"
       d="m 131.26257,142.81457 c 0,0 0.17576,24.07831 0.70302,28.38429 0,0 0.1914,-27.24919 -0.70302,-28.38429 z"
       inkscape:connector-curvature="0"
       style="stroke-width:0.452458;stop-opacity:1" />
    <path
       id="path1407"
       opacity="0.1"
       d="m 135.7443,153.97496 c -0.36232,0 7.20592,28.20853 7.55741,30.2297 0.35148,2.02118 -5.44836,-30.2297 -7.55741,-30.2297 z"
       inkscape:connector-curvature="0"
       style="stroke-width:0.452458;stop-opacity:1" />
    <path
       id="path1409"
       opacity="0.1"
       d="m 141.71994,149.40535 c 0,0.26364 4.2181,15.29061 6.32717,16.0815 2.10908,0.7909 -6.32717,-16.0815 -6.32717,-16.0815 z"
       inkscape:connector-curvature="0"
       style="stroke-width:0.452458;stop-opacity:1" />
    <path
       id="path1411"
       opacity="0.1"
       d="m 158.3287,120.1423 c 0,0 -8.96346,0.39952 -9.22709,1.69367 -0.26363,1.29415 9.22709,-1.69367 9.22709,-1.69367 z"
       inkscape:connector-curvature="0"
       style="stroke-width:0.452458;stop-opacity:1" />
    <path
       id="path1413"
       opacity="0.1"
       d="m 142.51084,234.73396 c 0,0 -6.41503,2.72419 -5.44838,2.89995 0.96665,0.17575 5.44838,-2.89995 5.44838,-2.89995 z"
       inkscape:connector-curvature="0"
       style="stroke-width:0.452458;stop-opacity:1" />
    <path
       id="path1415"
       opacity="0.1"
       d="m 129.2414,230.69163 c -0.24983,-0.56213 4.30598,2.28479 4.30598,2.6363 0,0.35151 -3.95447,-1.84541 -4.30598,-2.6363 z"
       inkscape:connector-curvature="0"
       style="stroke-width:0.452458;stop-opacity:1" />
    <path
       id="path1417"
       opacity="0.1"
       d="m 135.21704,239.91871 c 0,0 5.00899,-0.25274 5.3605,1.67511 0.3515,1.92784 -5.3605,-1.67511 -5.3605,-1.67511 z"
       inkscape:connector-curvature="0"
       style="stroke-width:0.452458;stop-opacity:1" />
    <path
       id="path1419"
       opacity="0.1"
       d="m 99.187463,239.9078 c 0,0 5.448377,-1.06543 5.887757,0 0.43939,1.06543 -5.887757,0 -5.887757,0 z"
       inkscape:connector-curvature="0"
       style="stroke-width:0.452458;stop-opacity:1" />
    <path
       id="path1421"
       opacity="0.1"
       d="m 101.20862,273.04836 c 0,0 0.35728,4.48172 -0.96376,5.53627 -1.321039,1.05455 0.96376,-5.53627 0.96376,-5.53627 z"
       inkscape:connector-curvature="0"
       style="stroke-width:0.452458;stop-opacity:1" />
    <path
       id="path1423"
       opacity="0.1"
       d="m 100.54317,282.53907 c 1.71998,0.17576 10.77131,-1.40603 10.68344,0 -0.0879,1.40603 -10.68344,0 -10.68344,0 z"
       inkscape:connector-curvature="0"
       style="stroke-width:0.452458;stop-opacity:1" />
    <path
       id="path1425"
       opacity="0.1"
       d="m 142.07145,277.0907 c 0,0 -3.08704,-0.47446 -2.33441,1.60819 z"
       inkscape:connector-curvature="0"
       style="stroke-width:0.452458;stop-opacity:1" />
    <path
       id="path1427"
       opacity="0.1"
       d="m 84.687742,101.68812 h -1.669665 l -2.548433,9.31497 c 0,0 -0.878769,3.25144 -1.757542,4.04234 -0.878773,0.79089 0.790897,7.99681 0.790897,7.99681 0,0 -0.966645,5.09687 -1.757537,6.41502 -0.790892,1.31816 1.230279,4.56961 1.230279,4.56961 l 4.042341,9.49072 10.720991,2.81207 c 0,0 18.893557,4.13022 19.772337,4.74537 0.87877,0.61516 1.66966,-0.26363 2.2848,-5.97563 0.61514,-5.71201 2.2848,-16.78452 3.60296,-17.31178 0,0 -10.54525,1.1424 -11.42402,0.96665 -0.87876,-0.17576 -5.09687,0.0879 -5.09687,0.0879 0,0 -5.53627,-0.3515 -6.415016,0.17575 -0.878746,0.52726 1.142397,-2.55239 1.142397,-2.55239 a 8.4750219,8.4750219 0 0 0 0,-4.30201 c -0.615134,-2.3727 -0.96664,-29.263079 -12.917919,-20.47537 z"
       inkscape:connector-curvature="0"
       style="stroke-width:0.452458;stop-opacity:1" />
    <path
       id="path1429"
       opacity="0.1"
       d="m 119.04765,128.84212 c -1.31815,0.52727 -2.98782,11.59977 -3.60296,17.31178 -0.61514,5.71201 -1.40603,6.59078 -2.2848,5.97564 -0.71357,-0.49916 -13.308092,-3.31824 -18.014795,-4.35871 0.741678,-4.37628 1.142402,-9.26223 1.142402,-9.26223 L 82.930196,102.74264 h 1.406031 c 11.951279,-8.787707 12.302785,18.10267 12.917929,20.47535 a 8.477058,8.477058 0 0 1 0,4.30246 c 0,0 -2.021175,3.07921 -1.142402,2.55195 0.878773,-0.52726 6.415026,-0.17575 6.415026,-0.17575 0,0 4.2181,-0.26363 5.09686,-0.0879 0.87877,0.17576 11.42401,-0.96665 11.42401,-0.96665 z"
       inkscape:connector-curvature="0"
       style="stroke-width:0.452458;stop-opacity:1" />
    <path
       id="path1431"
       fill="#fa7327"
       d="m 84.336232,102.03963 h -1.669661 l -2.548437,9.31496 c 0,0 -0.878769,3.25145 -1.757537,4.04235 -0.878769,0.79089 0.790896,7.99681 0.790896,7.99681 0,0 -0.966649,5.09687 -1.757541,6.41502 -0.790892,1.31816 1.230279,4.56961 1.230279,4.56961 l 4.042345,9.49072 10.720992,2.81207 c 0,0 18.893562,4.13021 19.772332,4.74538 0.87877,0.61516 1.66967,-0.26363 2.28481,-5.97562 0.61514,-5.71198 2.2848,-16.78451 3.60296,-17.31178 0,0 -10.54525,1.14241 -11.42402,0.96665 -0.87877,-0.17575 -5.09687,0.0879 -5.09687,0.0879 0,0 -5.536272,-0.35151 -6.415022,0.17575 -0.87875,0.52726 1.142402,-2.55239 1.142402,-2.55239 a 8.4750219,8.4750219 0 0 0 0,-4.30202 C 96.639021,120.1423 96.287511,93.251917 84.336232,102.03963 Z"
       inkscape:connector-curvature="0"
       style="opacity:1;stroke-width:0.452458;stop-opacity:1" />
    <path
       id="path1433"
       opacity="0.1"
       d="m 90.048265,133.85111 c 0,0 -4.833238,9.1392 -5.712011,8.08469 -0.878772,-1.0545 5.712011,-8.08469 5.712011,-8.08469 z"
       inkscape:connector-curvature="0"
       style="stroke-width:0.452458;stop-opacity:1" />
    <path
       id="path1435"
       opacity="0.1"
       d="m 85.039252,128.64684 c 0,0 -4.481732,3.71037 -2.37269,4.67702 2.109043,0.96664 2.37269,-4.67702 2.37269,-4.67702 z"
       inkscape:connector-curvature="0"
       style="stroke-width:0.452458;stop-opacity:1" />
    <path
       id="path1437"
       opacity="0.1"
       d="m 89.257368,124.09676 c 0.351506,0.0879 6.502898,1.30962 6.590775,1.84115 0.08788,0.53153 -6.590775,-1.84115 -6.590775,-1.84115 z"
       inkscape:connector-curvature="0"
       style="stroke-width:0.452458;stop-opacity:1" />
    <path
       id="path1439"
       opacity="0.1"
       d="m 131.91638,59.721546 a 0.90600184,0.90600184 0 0 0 -0.60107,0.94204 c -0.35855,0.316368 -0.86122,-0.05623 -1.15296,-0.460475 -0.29525,-0.400724 -0.62917,-0.896342 -1.07559,-0.840111 a 3.8611903,3.8611903 0 0 0 -0.61514,0.256617 c -0.70302,0.224948 -1.29709,-0.601086 -1.69077,-1.325191 q -1.02814,-1.903414 -2.05632,-3.803321 c -1.37441,0.797928 -2.99838,-0.03869 -4.36223,-0.86472 -1.36385,-0.826057 -2.98782,-1.666144 -4.3657,-0.868212 -2.02117,1.167007 -2.09502,5.058204 -4.19,6.017818 -0.67491,0.309327 -1.45877,0.242517 -2.08447,0.667873 -0.61866,0.421795 -0.95257,1.233776 -1.23028,2.010614 a 2.1296382,2.1296382 0 0 1 -0.68894,1.135367 1.5134945,1.5134945 0 0 1 -0.71006,0.172255 3.0461597,3.0461597 0 0 1 -1.82782,-0.256612 1.5447413,1.5447413 0 0 1 -0.63273,-1.827848 0.95634684,0.95634684 0 0 1 0.0563,-0.10193 6.3964707,6.3964707 0 0 0 0.60458,-0.868217 c 0.2109,-0.558903 -0.0914,-1.209185 -0.0246,-1.813791 0.10895,-1.033437 1.20214,-1.578268 1.38844,-2.594132 0.0773,-0.397208 -0.004,-0.822518 0.0703,-1.223242 a 1.1120241,1.1120241 0 0 1 0.0422,-0.154664 l -0.64328,0.442902 c 0.7206,-0.84011 1.08267,-2.007103 1.60993,-3.026491 a 9.3205573,9.3205573 0 0 1 5.6874,-4.629383 c 2.29184,-0.667828 4.71371,-0.48508 7.02664,0.08086 a 23.138655,23.138655 0 0 1 6.25334,2.57654 6.2053706,6.2053706 0 0 1 1.82079,1.479859 11.398258,11.398258 0 0 1 1.07916,1.993046 c 0.68191,1.413067 2.54492,2.720666 1.06156,2.917512 -1.23379,0.16522 -0.10899,1.029939 0.53782,1.613429 a 1.6778092,1.6778092 0 0 1 0.37257,0.407742 1.4594891,1.4594891 0 0 1 -0.0774,1.409551 c -0.24955,0.316381 0.76283,0.379649 0.41832,0.534312 z"
       inkscape:connector-curvature="0"
       style="stroke-width:0.452458;stop-opacity:1" />
    <path
       id="path1441"
       fill="#865a61"
       d="m 131.91638,59.370041 a 0.90599731,0.90599731 0 0 0 -0.60107,0.94204 c -0.35855,0.316363 -0.86122,-0.05624 -1.15296,-0.460476 -0.29525,-0.400724 -0.62917,-0.896342 -1.07559,-0.84011 a 3.8607741,3.8607741 0 0 0 -0.61514,0.256616 c -0.70302,0.224949 -1.29709,-0.601086 -1.69077,-1.325195 q -1.02814,-1.903405 -2.05632,-3.803321 c -1.37441,0.797932 -2.99838,-0.03864 -4.36223,-0.864715 -1.36385,-0.826057 -2.98782,-1.666149 -4.3657,-0.868217 -2.02117,1.167011 -2.09502,5.058208 -4.19,6.017817 -0.67491,0.309332 -1.45877,0.242545 -2.08447,0.667874 -0.61866,0.421795 -0.95257,1.233776 -1.23028,2.010619 a 2.1296427,2.1296427 0 0 1 -0.68894,1.135362 1.5134991,1.5134991 0 0 1 -0.71006,0.172259 3.0461959,3.0461959 0 0 1 -1.82782,-0.256616 1.5447368,1.5447368 0 0 1 -0.63273,-1.827848 0.95634684,0.95634684 0 0 1 0.0563,-0.10193 6.3964255,6.3964255 0 0 0 0.60458,-0.868213 c 0.2109,-0.558907 -0.0914,-1.209189 -0.0246,-1.813795 0.10895,-1.033414 1.20214,-1.578268 1.38844,-2.594132 0.0773,-0.397203 -0.004,-0.822518 0.0703,-1.223242 a 1.112196,1.112196 0 0 1 0.0422,-0.154664 l -0.64328,0.442902 c 0.7206,-0.840106 1.08267,-2.007104 1.60993,-3.026491 a 9.3205482,9.3205482 0 0 1 5.6874,-4.629378 c 2.29184,-0.667855 4.71371,-0.485085 7.02664,0.08086 a 23.1388,23.1388 0 0 1 6.25334,2.57654 6.2053706,6.2053706 0 0 1 1.82079,1.479859 11.398258,11.398258 0 0 1 1.07916,1.993046 c 0.68191,1.413071 2.54492,2.72067 1.06156,2.917512 -1.23379,0.16522 -0.10899,1.029939 0.53782,1.613434 a 1.6776418,1.6776418 0 0 1 0.37257,0.407741 1.4594891,1.4594891 0 0 1 -0.0774,1.409552 c -0.24955,0.316376 0.76283,0.379648 0.41832,0.534312 z"
       inkscape:connector-curvature="0"
       style="opacity:1;stroke-width:0.452458;stop-opacity:1" />
    <path
       id="path1443"
       opacity="0.1"
       d="m 131.20284,57.018449 -0.14065,1.479859 c 0,0 -14.74927,-18.693206 -26.22246,2.414859 0,0 -0.0563,-0.256616 -0.15117,-0.688967 a 6.3964255,6.3964255 0 0 0 0.60459,-0.868213 c 0.2109,-0.558907 -0.0914,-1.209189 -0.0246,-1.813795 0.10895,-1.033414 1.20213,-1.578268 1.38844,-2.594132 0.0773,-0.397203 -0.004,-0.822518 0.0703,-1.223242 a 1.112196,1.112196 0 0 1 0.0422,-0.154664 l -0.64329,0.442902 c 0.72061,-0.840106 1.08267,-2.007104 1.60994,-3.026491 a 9.3205482,9.3205482 0 0 1 5.68739,-4.629378 c 2.29184,-0.667855 4.71371,-0.485085 7.02665,0.08086 a 23.1388,23.1388 0 0 1 6.25334,2.57654 6.2053706,6.2053706 0 0 1 1.82079,1.479859 11.398258,11.398258 0 0 1 1.07915,1.993046 c 0.68191,1.413071 2.54492,2.72067 1.06156,2.917512 -1.23381,0.165233 -0.109,1.029953 0.5378,1.613447 z"
       inkscape:connector-curvature="0"
       style="stroke-width:0.452458;stop-opacity:1" />
    <g
       transform="matrix(0.45245797,0,0,0.45245797,-38.987143,1.0827358)"
       id="g1455"
       opacity="0.1"
       style="stop-opacity:1">
      <path
         id="path1445"
         transform="translate(-154.96538,-103.63591)"
         d="m 531.91464,232.03646 a 1.57413,1.57413 0 0 0 -0.36957,1.34466 c -0.79244,0.69921 -1.90343,-0.12428 -2.54821,-1.01772 -0.65256,-0.88566 -1.39056,-1.98105 -2.37722,-1.85677 a 8.53343,8.53343 0 0 0 -1.35955,0.56716 c -1.55378,0.49717 -2.86676,-1.32849 -3.73687,-2.92887 q -2.27234,-4.20683 -4.54476,-8.40591 c -3.03765,1.76354 -6.62686,-0.0855 -9.64118,-1.91116 -3.01432,-1.82571 -6.60353,-3.68243 -9.64886,-1.91889 -4.4671,2.57927 -4.63031,11.1794 -9.26052,13.30029 -1.49165,0.68366 -3.22409,0.536 -4.607,1.4761 -1.36733,0.93222 -2.10533,2.72683 -2.7191,4.44376 a 4.70691,4.70691 0 0 1 -1.52267,2.50933 3.345,3.345 0 0 1 -1.56932,0.38071 6.73257,6.73257 0 0 1 -4.03977,-0.56716 3.63373,3.63373 0 0 1 -1.51394,-2.13567 3.49314,3.49314 0 0 0 1.51394,3.68944 6.7325,6.7325 0 0 0 4.03977,0.56716 3.345,3.345 0 0 0 1.56932,-0.38071 4.70691,4.70691 0 0 0 1.52267,-2.50933 c 0.61377,-1.71693 1.35177,-3.51154 2.7191,-4.44376 1.38288,-0.94005 3.11532,-0.79244 4.607,-1.4761 4.63021,-2.12089 4.79342,-10.721 9.26052,-13.30028 3.04533,-1.76355 6.63454,0.0932 9.64886,1.91888 3.01432,1.82566 6.60353,3.6747 9.64118,1.91116 q 2.27233,4.19516 4.54476,8.40591 c 0.87011,1.60038 2.18309,3.426 3.73687,2.92887 a 8.53343,8.53343 0 0 1 1.35955,-0.56716 c 0.98666,-0.12428 1.72466,0.97111 2.37722,1.85677 0.64478,0.89344 1.75577,1.71694 2.54821,1.01772 a 2.00239,2.00239 0 0 1 1.32844,-2.08205 c 0.60571,-0.27184 -0.68251,-0.41694 -0.95887,-0.81638 z"
         inkscape:connector-curvature="0" />
      <path
         id="path1447"
         transform="translate(-154.96538,-103.63591)"
         d="m 529.3743,224.27471 a 2.81313,2.81313 0 0 1 0.73355,-0.18516 c 1.44547,-0.19181 1.45154,-0.86167 0.87911,-1.81746 a 2.27194,2.27194 0 0 1 -0.87911,0.26369 c -1.55985,0.20887 -1.41171,0.92402 -0.73355,1.73893 z"
         inkscape:connector-curvature="0" />
      <path
         id="path1449"
         transform="translate(-154.96538,-103.63591)"
         d="m 532.3505,230.78222 a 3.50987,3.50987 0 0 0 -0.008,-1.5192 2.2409,2.2409 0 0 1 -0.39356,0.85517 c -0.24332,0.30845 0.0563,0.50793 0.40156,0.66403 z"
         inkscape:connector-curvature="0" />
      <path
         id="path1451"
         transform="translate(-154.96538,-103.63591)"
         d="m 474.0228,228.54431 c -0.0165,0.0888 -0.0353,0.17654 -0.045,0.26872 a 8.91195,8.91195 0 0 0 0.15173,2.08835 7.34919,7.34919 0 0 0 -0.10673,-2.35707 z"
         inkscape:connector-curvature="0" />
      <path
         id="path1453"
         transform="translate(-154.96538,-103.63591)"
         d="m 477.17681,219.06587 a 11.268,11.268 0 0 1 -1.30341,1.94724 l 1.25391,-0.86333 a 8.68832,8.68832 0 0 1 0.0495,-1.08391 z"
         inkscape:connector-curvature="0" />
    </g>
    <path
       id="path1457"
       fill="#fa7327"
       d="m 104.83897,60.561657 c 0,0 -2.12098,-9.481506 -1.44612,-11.002127 0,0 -1.83176,-3.756822 -1.83176,-4.651304 a 8.8823743,8.8823743 0 0 0 -1.34971,-4.204067 c -0.964088,-1.520617 -2.024582,-8.587024 3.75992,-10.286542 5.7845,-1.699518 10.21929,-3.220143 10.89415,-4.38296 0.67486,-1.162817 10.60491,-0.447241 13.30435,4.02517 2.69944,4.472411 4.43479,3.577929 4.43479,3.577929 0,0 4.14556,2.593996 4.14556,4.919648 0,2.325652 -1.25331,3.488478 0,4.02517 1.25331,0.536692 0.28922,10.197091 -5.20606,10.465434 l -0.48204,5.09855 c 0,0 -14.75048,-18.694672 -26.22308,2.415099 z"
       inkscape:connector-curvature="0"
       style="opacity:1;stroke-width:0.452458;stop-opacity:1" />
    <path
       id="path1459"
       opacity="0.1"
       d="m 105.47066,32.265247 c 0,0 -1.27422,7.469552 1.05452,9.974047 z"
       inkscape:connector-curvature="0"
       style="stroke-width:0.452458;stop-opacity:1" />
    <path
       id="path1461"
       opacity="0.1"
       d="m 111.4463,30.551644 c 0,0 -3.25145,7.996815 -2.46056,9.534647 z"
       inkscape:connector-curvature="0"
       style="stroke-width:0.452458;stop-opacity:1" />
    <path
       id="path1463"
       opacity="0.1"
       d="m 114.25838,28.003211 c 0,0 -2.19692,10.413429 -1.1424,11.248263 z"
       inkscape:connector-curvature="0"
       style="stroke-width:0.452458;stop-opacity:1" />
    <path
       id="path1465"
       opacity="0.1"
       d="m 118.03708,30.815278 c 0,0 -2.72419,6.678655 -1.62572,7.601362 z"
       inkscape:connector-curvature="0"
       style="stroke-width:0.452458;stop-opacity:1" />
    <path
       id="path1467"
       opacity="0.1"
       d="m 123.17789,31.60617 c 0,0 -3.20752,5.448377 -2.54844,6.415026 z"
       inkscape:connector-curvature="0"
       style="stroke-width:0.452458;stop-opacity:1" />
    <path
       id="path1469"
       opacity="0.1"
       d="m 129.76867,36.922732 c 0,0 -3.42721,0.922711 -2.72419,2.021171 z"
       inkscape:connector-curvature="0"
       style="stroke-width:0.452458;stop-opacity:1" />
    <path
       id="path1471"
       opacity="0.1"
       d="m 133.02011,42.590818 c 0,0 -3.07569,1.493912 -2.50449,2.284804 z"
       inkscape:connector-curvature="0"
       style="stroke-width:0.452458;stop-opacity:1" />
    <path
       id="path1473"
       opacity="0.1"
       d="m 103.39285,49.55953 c 0,0 19.64506,-7.979634 28.15124,3.488478 0,1.8e-5 -10.3249,-8.778598 -28.15124,-3.488478 z"
       inkscape:connector-curvature="0"
       style="stroke-width:0.452458;stop-opacity:1" />
    <polygon
       transform="matrix(0.45245797,0,0,0.45245797,-38.987143,1.0827358)"
       id="polygon1475"
       fill="#53526b"
       points="300.365,253.411 298.991,252.052 305.041,245.932 322.146,262.84 316.096,268.961 "
       style="opacity:1;stop-opacity:1" />
    <path
       id="path1477"
       fill="#dfe6f5"
       d="m 78.335789,97.373976 c 0,0 11.980734,1.019515 23.131461,13.570414 l -4.647553,4.70149 z"
       inkscape:connector-curvature="0"
       style="opacity:1;stroke-width:0.452458;stop-opacity:1" />
    <path
       id="path1479"
       fill="#fdc2cc"
       d="m 114.27139,119.81533 c 0,0 -11.51525,-4.19775 -12.64681,-5.20157 -1.13156,-1.00381 -7.787771,4.83655 0.33281,12.77578 0,0 9.92989,2.82892 12.58631,0 2.65643,-2.82892 -0.27231,-7.57421 -0.27231,-7.57421 z"
       inkscape:connector-curvature="0"
       style="opacity:1;stroke-width:0.452458;stop-opacity:1" />
    <g
       id="g1577"
       transform="matrix(0.61509251,0,0,0.61509251,-414.4584,17.33738)">
      <rect
         id="rect1351"
         fill="#535461"
         height="60.341789"
         width="2.6818597"
         y="343.52646"
         x="729.96765"
         style="opacity:1;stroke-width:0.518241;stop-opacity:1" />
      <path
         id="path1353-6"
         fill="#65617d"
         d="m 749.49359,403.68498 -0.16985,2.71762 -0.23688,3.83507 -0.0984,1.60015 -0.23688,3.83954 -0.10279,1.60018 -0.23692,3.83504 -2.70418,43.62937 a 7.389331,7.389331 0 0 1 -7.37508,6.93261 h -14.04847 a 7.3852006,7.3852006 0 0 1 -7.37063,-6.93261 l -2.70868,-43.62937 -0.23691,-3.83504 -0.0983,-1.60018 -0.24139,-3.83954 -0.0983,-1.60015 -0.23691,-3.83507 -0.16985,-2.71762 a 3.8279648,3.8279648 0 0 1 3.82164,-4.06301 h 28.73164 a 3.8244097,3.8244097 0 0 1 3.81714,4.06301 z"
         inkscape:connector-curvature="0"
         style="opacity:1;stroke-width:0.518241;stop-opacity:1" />
      <polygon
         transform="matrix(0.51824078,0,0,0.51824078,312.96538,115.6359)"
         id="polygon1355"
         fill="#9d9cb5"
         points="772.474,561.065 841.999,561.065 841.542,568.465 772.931,568.465 "
         style="opacity:1;stop-opacity:1" />
      <polygon
         transform="matrix(0.51824078,0,0,0.51824078,312.96538,115.6359)"
         id="polygon1357"
         fill="#9d9cb5"
         points="773.121,571.553 841.352,571.553 840.895,578.962 773.587,578.962 "
         style="opacity:1;stop-opacity:1" />
      <polygon
         transform="matrix(0.51824078,0,0,0.51824078,312.96538,115.6359)"
         id="polygon1359"
         fill="#9d9cb5"
         points="773.777,582.049 840.697,582.049 840.24,589.449 774.234,589.449 "
         style="opacity:1;stop-opacity:1" />
      <path
         id="path1361-5"
         fill="#fa7327"
         d="m 709.19978,366.14388 c 15.6095,11.29143 22.10858,28.95363 22.10858,28.95363 0,0 -18.80889,-0.64489 -34.41838,-11.93634 -15.60949,-11.29146 -22.10859,-28.95363 -22.10859,-28.95363 0,0 18.8089,0.64489 34.41839,11.93634 z"
         inkscape:connector-curvature="0"
         style="opacity:1;stroke-width:0.518241;stop-opacity:1" />
      <path
         id="path1363"
         stroke-width="2"
         stroke-miterlimit="10"
         stroke="#535461"
         fill="none"
         d="m 674.78139,354.20754 c 0,0 19.52253,10.83701 25.78544,19.80845 6.26291,8.97145 30.74152,21.08152 30.74152,21.08152"
         inkscape:connector-curvature="0"
         style="opacity:1;stop-opacity:1" />
      <path
         id="path1365"
         fill="#fa7327"
         d="m 719.27482,343.39318 c 8.49613,6.14586 12.03355,15.75925 12.03355,15.75925 0,0 -10.23754,-0.35101 -18.73368,-6.49687 -8.49614,-6.14585 -12.03355,-15.75925 -12.03355,-15.75925 0,0 10.23754,0.35101 18.73368,6.49687 z"
         inkscape:connector-curvature="0"
         style="opacity:1;stroke-width:0.518241;stop-opacity:1" />
      <path
         id="path1367"
         stroke-width="2"
         stroke-miterlimit="10"
         stroke="#535461"
         fill="none"
         d="m 700.54114,336.89631 c 0,0 10.62597,5.89851 14.03482,10.7816 3.40886,4.88309 16.7324,11.47452 16.7324,11.47452"
         inkscape:connector-curvature="0"
         style="opacity:1;stop-opacity:1" />
      <path
         id="path1369"
         fill="#fa7327"
         d="m 743.65467,358.66313 c -9.75862,10.72586 -11.82293,24.74029 -11.82293,24.74029 0,0 13.75753,-3.37567 23.51616,-14.10154 9.75863,-10.72588 11.82294,-24.7403 11.82294,-24.7403 0,0 -13.75753,3.37567 -23.51617,14.10155 z"
         inkscape:connector-curvature="0"
         style="opacity:1;stroke-width:0.518241;stop-opacity:1" />
      <path
         id="path1371-5"
         stroke-width="2"
         stroke-miterlimit="10"
         stroke="#535461"
         fill="none"
         d="m 767.17084,344.56156 c 0,0 -12.71157,10.9945 -15.94207,18.56981 -3.23054,7.5753 -19.39703,20.27202 -19.39703,20.27202"
         inkscape:connector-curvature="0"
         style="opacity:1;stop-opacity:1" />
    </g>
  </g>
</svg>
