<svg xmlns="http://www.w3.org/2000/svg" width="1920.698" height="1039.862" viewBox="0 0 1920.698 1039.862">
  <path id="Union_1" data-name="Union 1" d="M2478.76,1086.03h-1920v-895l1.99.4c-1.86-.593-2.773-.969-2.682-1.116C637.938,61.626,902.989,6.864,1101.93,76.859c170.834,60.108,386.944,225.461,482.145,322.375l1.849.375c22.367,15.354,46.634,30.875,72.13,46.129,26.562,15.9,54.833,31.726,84.029,47.055a2146.378,2146.378,0,0,0,201.051,92.166c27.966,11.166,56.13,21,83.711,29.225,26.21,7.818,52.52,14.372,78.2,19.48,24.337,4.842,48.662,8.5,72.3,10.862,22.346,2.237,44.557,3.37,66.019,3.369a558.992,558.992,0,0,0,81.138-5.728,434.051,434.051,0,0,0,66.992-15.118,301.231,301.231,0,0,0,51.778-21.42,202.856,202.856,0,0,0,19.85-12.108A141.735,141.735,0,0,0,2478.76,581v505.037h0Z" transform="translate(2478.76 1086.037) rotate(180)" fill="#352fd9" opacity="0.041"/>
</svg>
