<?xml version="1.0" encoding="UTF-8" standalone="no"?>
<svg
   xmlns:dc="http://purl.org/dc/elements/1.1/"
   xmlns:cc="http://creativecommons.org/ns#"
   xmlns:rdf="http://www.w3.org/1999/02/22-rdf-syntax-ns#"
   xmlns:svg="http://www.w3.org/2000/svg"
   xmlns="http://www.w3.org/2000/svg"
   xmlns:sodipodi="http://sodipodi.sourceforge.net/DTD/sodipodi-0.dtd"
   xmlns:inkscape="http://www.inkscape.org/namespaces/inkscape"
   inkscape:export-ydpi="96"
   inkscape:export-xdpi="96"
   inkscape:export-filename="/Users/docislaw/keto_hero.png"
   width="1052.314"
   height="574.23108"
   viewBox="0 0 278.42473 151.93197"
   version="1.1"
   id="svg8"
   inkscape:version="1.0beta1 (060977b, 2019-10-14)"
   sodipodi:docname="keto_hero_object.svg">
  <defs
     id="defs2" />
  <sodipodi:namedview
     id="base"
     pagecolor="#ffffff"
     bordercolor="#666666"
     borderopacity="1.0"
     inkscape:pageopacity="0.0"
     inkscape:pageshadow="2"
     inkscape:zoom="0.43774827"
     inkscape:cx="365.74473"
     inkscape:cy="103.59033"
     inkscape:document-units="mm"
     inkscape:current-layer="layer5"
     inkscape:document-rotation="0"
     showgrid="false"
     width="1054mm"
     units="px"
     showguides="false"
     inkscape:guide-bbox="true"
     inkscape:window-width="1440"
     inkscape:window-height="817"
     inkscape:window-x="0"
     inkscape:window-y="23"
     inkscape:window-maximized="0"
     inkscape:snap-global="true">
    <sodipodi:guide
       position="-49.024349,246.68697"
       orientation="0,-1"
       id="guide1084" />
    <sodipodi:guide
       position="278.42474,184.08557"
       orientation="1,0"
       id="guide1086" />
    <sodipodi:guide
       position="-7.0944593e-09,40.275253"
       orientation="1,0"
       id="guide1435" />
    <sodipodi:guide
       position="130.81311,0.025066264"
       orientation="0,-1"
       id="guide1437" />
  </sodipodi:namedview>
  <metadata
     id="metadata5">
    <rdf:RDF>
      <cc:Work
         rdf:about="">
        <dc:format>image/svg+xml</dc:format>
        <dc:type
           rdf:resource="http://purl.org/dc/dcmitype/StillImage" />
        <dc:title></dc:title>
      </cc:Work>
    </rdf:RDF>
  </metadata>
  <g
     transform="translate(-0.67083649,-98.985935)"
     inkscape:label="Tło_tył"
     inkscape:groupmode="layer"
     id="layer1"
     style="display:none">
    <path
       style="fill:#fa7327;fill-opacity:0.15;stroke:none;stroke-width:0.292214px;stroke-linecap:butt;stroke-linejoin:miter;stroke-opacity:1"
       d="M 5.2576074,1.8311196e-6 C -23.472929,44.193614 56.099521,38.737569 56.925151,63.06713 c 0.82563,24.329561 -51.1780961,34.789915 -43.630369,60.24323 7.547726,25.45331 79.206853,23.20826 90.131168,46.12372 10.92431,22.91546 -29.793434,40.54459 -19.518858,58.36063 10.274577,17.81604 31.498458,17.74123 64.297378,23.53251 l 130.89112,0.47065 V 1.8311216e-6 Z"
       id="path1092"
       inkscape:connector-curvature="0"
       sodipodi:nodetypes="czzzzcccc" />
    <rect
       style="opacity:0;fill:#3f2f00;fill-opacity:1;stroke:none;stroke-width:1.37583"
       id="rect1102"
       width="36.468094"
       height="53.044502"
       x="30.942623"
       y="152.50293" />
  </g>
  <g
     transform="translate(-0.67083649,-98.985935)"
     style="display:none"
     inkscape:groupmode="layer"
     id="layer4"
     inkscape:label="Paleta">
    <rect
       style="display:inline;opacity:1;fill:#002d5d;fill-opacity:1;stroke:none;stroke-width:1.44306"
       id="rect1112"
       width="42.352943"
       height="37.304737"
       x="17.073881"
       y="-58.090557" />
    <rect
       style="display:inline;opacity:1;fill:#c46e6c;fill-opacity:1;stroke:none;stroke-width:1.44306"
       id="rect1120"
       width="42.352943"
       height="37.304737"
       x="61.007633"
       y="-58.090557" />
    <rect
       style="display:inline;opacity:1;fill:#fccf51;fill-opacity:1;stroke:none;stroke-width:1.44306"
       id="rect1122"
       width="42.352943"
       height="37.304737"
       x="104.94139"
       y="-58.090557" />
    <rect
       style="display:inline;opacity:1;fill:#7f7f7f;fill-opacity:1;stroke:none;stroke-width:1.44306"
       id="rect1124"
       width="42.352943"
       height="37.304737"
       x="-26.859871"
       y="-58.090557" />
    <rect
       style="display:inline;opacity:1;fill:#fa7327;fill-opacity:1;stroke:none;stroke-width:1.44306"
       id="rect1126"
       width="42.352943"
       height="37.304737"
       x="148.87514"
       y="-58.090557" />
    <rect
       style="display:inline;opacity:1;fill:#829a50;fill-opacity:1;stroke:none;stroke-width:1.44306"
       id="rect1128"
       width="42.352943"
       height="37.304737"
       x="192.80888"
       y="-58.090557" />
    <rect
       y="-58.090557"
       x="236.74265"
       height="37.304737"
       width="42.352943"
       id="rect1118"
       style="display:inline;opacity:1;fill:#e4e4e4;fill-opacity:1;stroke:none;stroke-width:1.44306" />
  </g>
  <g
     transform="translate(-0.67083649,-98.985935)"
     inkscape:groupmode="layer"
     id="layer3"
     inkscape:label="Tło_przód"
     style="display:none">
    <path
       sodipodi:nodetypes="cazzzcccc"
       inkscape:connector-curvature="0"
       id="path1184"
       d="M 5.2576074,1.8311197e-6 C -14.959071,44.193614 73.016985,27.038148 87.569875,57.09111 c 8.09248,16.71169 -8.78817,30.14191 -3.47709,55.59522 5.31107,25.45331 49.095095,48.44033 56.782155,71.35579 7.68706,22.91546 -6.35656,25.93655 0.8733,43.75259 7.22986,17.81604 22.16436,17.74123 45.24382,23.53251 l 92.10353,0.47065 V 1.8311197e-6 Z"
       style="display:inline;fill:#fa7327;fill-opacity:0.15;stroke:none;stroke-width:0.245123px;stroke-linecap:butt;stroke-linejoin:miter;stroke-opacity:1" />
    <path
       inkscape:connector-curvature="0"
       id="path1001"
       style="display:inline;opacity:1;fill:#f2f2f2;fill-opacity:1;stroke-width:1.4046"
       d="m 243.1302,10.821646 a 3.2076766,3.9052943 0 0 0 -3.05444,2.926647 7.1955986,6.7981047 0 0 0 -1.40266,-0.130754 7.1955986,6.7981047 0 0 0 -7.19589,6.798619 7.1955986,6.7981047 0 0 0 7.19589,6.798049 7.1955986,6.7981047 0 0 0 1.88539,-0.238133 6.4153528,3.3749457 0 0 0 4.18297,0.816231 6.4153528,3.3749457 0 0 0 5.15542,-1.365947 10.489969,4.2910024 0 0 0 7.67562,1.365947 10.489969,4.2910024 0 0 0 10.48994,-4.290936 10.489969,4.2910024 0 0 0 -7.52204,-4.11566 4.4647388,4.1945755 0 0 0 0.32616,-1.573491 4.4647388,4.1945755 0 0 0 -4.46461,-4.194679 4.4647388,4.1945755 0 0 0 -2.44415,0.684928 6.1986181,6.1231159 0 0 0 -5.27149,-2.902723 6.1986181,6.1231159 0 0 0 -3.06044,0.798433 3.2076766,3.9052943 0 0 0 -2.44465,-1.376531 3.2076766,3.9052943 0 0 0 -0.051,0 z" />
    <path
       inkscape:connector-curvature="0"
       id="path1003"
       style="display:inline;opacity:1;fill:#f2f2f2;fill-opacity:1;stroke-width:0.73195"
       d="m 144.92767,76.208481 a 1.3529032,2.5144134 0 0 0 -1.28828,1.884314 3.0348909,4.3769417 0 0 0 -0.5916,-0.08419 3.0348909,4.3769417 0 0 0 -3.03501,4.377266 3.0348909,4.3769417 0 0 0 3.03501,4.376913 3.0348909,4.3769417 0 0 0 0.79521,-0.153328 2.7058063,2.1729498 0 0 0 1.76425,0.525535 2.7058063,2.1729498 0 0 0 2.1744,-0.879468 4.4243589,2.7627505 0 0 0 3.23736,0.879468 4.4243589,2.7627505 0 0 0 4.42434,-2.762708 4.4243589,2.7627505 0 0 0 -3.17257,-2.649864 1.8830949,2.7006663 0 0 0 0.13756,-1.01308 1.8830949,2.7006663 0 0 0 -1.88304,-2.700734 1.8830949,2.7006663 0 0 0 -1.03087,0.440982 2.614394,3.9423519 0 0 0 -2.22336,-1.868903 2.614394,3.9423519 0 0 0 -1.2908,0.514062 1.3529032,2.5144134 0 0 0 -1.03108,-0.886269 1.3529032,2.5144134 0 0 0 -0.0215,0 z" />
    <path
       id="path1005"
       style="display:inline;opacity:1;fill:#f2f2f2;fill-opacity:1;stroke-width:2.25669"
       d="m 174.54199,24.254107 a 5.2744235,6.1307037 0 0 0 -5.02245,4.594379 11.831815,10.671966 0 0 0 -2.30642,-0.205246 11.831815,10.671966 0 0 0 -11.8323,10.672757 11.831815,10.671966 0 0 0 11.8323,10.671877 11.831815,10.671966 0 0 0 3.10016,-0.37383 10.548846,5.298139 0 0 0 6.87813,1.281355 10.548846,5.298139 0 0 0 8.47713,-2.144325 17.248789,6.7362054 0 0 0 12.62111,2.144325 17.248789,6.7362054 0 0 0 17.24875,-6.736084 17.248789,6.7362054 0 0 0 -12.3686,-6.460963 7.341427,6.5848303 0 0 0 0.5363,-2.470135 7.341427,6.5848303 0 0 0 -7.3412,-6.584977 7.341427,6.5848303 0 0 0 -4.01895,1.075213 10.192467,9.6123382 0 0 0 -8.66797,-4.556822 10.192467,9.6123382 0 0 0 -5.03231,1.253415 5.2744235,6.1307037 0 0 0 -4.01978,-2.160939 5.2744235,6.1307037 0 0 0 -0.0839,0 z"
       inkscape:connector-curvature="0" />
    <path
       id="path1007"
       style="display:inline;opacity:1;fill:#f2f2f2;fill-opacity:1;stroke-width:1.47131"
       d="m 91.118984,14.294405 a 2.4657674,5.5743514 0 0 0 -2.34797,4.177446 5.531316,9.7035003 0 0 0 -1.07824,-0.186621 5.531316,9.7035003 0 0 0 -5.53154,9.70422 5.531316,9.7035003 0 0 0 5.53154,9.70342 5.531316,9.7035003 0 0 0 1.44931,-0.339906 4.9315346,4.8173407 0 0 0 3.21549,1.165074 4.9315346,4.8173407 0 0 0 3.96302,-1.94973 8.0637255,6.1249046 0 0 0 5.900306,1.94973 8.0637255,6.1249046 0 0 0 8.06371,-6.124794 8.0637255,6.1249046 0 0 0 -5.78226,-5.87464 3.4320816,5.9872666 0 0 0 0.25071,-2.245974 3.4320816,5.9872666 0 0 0 -3.43197,-5.9874 3.4320816,5.9872666 0 0 0 -1.878836,0.977639 4.7649289,8.7400326 0 0 0 -4.05223,-4.143297 4.7649289,8.7400326 0 0 0 -2.35259,1.13967 2.4657674,5.5743514 0 0 0 -1.87922,-1.964837 2.4657674,5.5743514 0 0 0 -0.0392,0 z"
       inkscape:connector-curvature="0" />
    <path
       inkscape:connector-curvature="0"
       d="m 233.27824,56.603817 a 5.327417,8.3561132 0 0 0 -5.07291,6.262112 11.950692,14.545826 0 0 0 -2.3296,-0.27975 11.950692,14.545826 0 0 0 -11.95118,14.546905 11.950692,14.545826 0 0 0 11.95118,14.545706 11.950692,14.545826 0 0 0 3.13131,-0.509529 10.654834,7.2213324 0 0 0 6.94723,1.746479 10.654834,7.2213324 0 0 0 8.56231,-2.922701 17.422093,9.1814084 0 0 0 12.74792,2.922701 17.422093,9.1814084 0 0 0 17.42205,-9.181242 17.422093,9.1814084 0 0 0 -12.49287,-8.806255 7.4151882,8.975085 0 0 0 0.54168,-3.36678 7.4151882,8.975085 0 0 0 -7.41496,-8.975284 7.4151882,8.975085 0 0 0 -4.05933,1.465509 10.294873,13.101561 0 0 0 -8.75505,-6.210921 10.294873,13.101561 0 0 0 -5.08288,1.708397 5.327417,8.3561132 0 0 0 -4.06016,-2.945347 5.327417,8.3561132 0 0 0 -0.0847,0 z"
       style="display:inline;opacity:1;fill:#f2f2f2;fill-opacity:1;stroke-width:2.64783"
       id="path980" />
  </g>
  <g
     transform="translate(-0.67083649,-98.985935)"
     inkscape:groupmode="layer"
     id="layer5"
     inkscape:label="Obiekty"
     style="display:inline">
    <g
       style="display:inline"
       id="g1433"
       transform="matrix(0.25780069,0,0,0.25780069,0.67083649,98.985935)">
      <path
         id="path1294"
         fill="#fa7327"
         transform="translate(-60,-155.33054)"
         d="m 1140,707.81053 c 0,-32.1668 -16.3221,-58.24316 -36.4565,-58.24316 -12.655,0 -23.8005,10.30531 -30.3373,25.94558 a 18.28713,18.28713 0 0 0 -6.967,-1.398 c -6.0944,0 -11.7291,3.12278 -16.3243,8.40786 -5.8925,-19.501 -18.3873,-32.95544 -32.8496,-32.95544 -13.5222,0 -25.31604,11.77071 -31.60971,29.23968 a 19.91524,19.91524 0 0 0 -12.47729,-4.6921 C 957.52634,674.115 945,694.127 945,718.81316 a 65.14473,65.14473 0 0 0 4.40793,24.06827 h 183.23967 c 4.6134,-9.75624 7.3524,-21.90118 7.3524,-35.0709 z"
         inkscape:connector-curvature="0" />
      <path
         id="path1296"
         fill="#f2f2f2"
         transform="translate(-60,-155.33054)"
         d="M 1009.299,371.48173 C 980.58867,309.37425 924.40313,256.39152 856.52782,247.75615 c -17.94635,-2.28321 -36.68378,-1.3675 -53.33478,5.70556 -21.857,9.28455 -37.96508,28.02509 -54.24615,45.31275 A 654.10822,654.10822 0 0 1 633.987,395.62193 c -20.687,13.696 -42.876,26.47455 -67.43726,29.97882 -49.2453,7.02606 -97.95556,-26.55633 -120.41418,-70.94189 -14.02936,-27.7265 -20.51245,-60.27961 -31.85358,-89.119 -13.0614,-0.025 -28.62286,-0.0202 -45.36487,0.0569 -46.27673,0.21332 -83.94415,0.897 -83.94415,0.897 0,0 44.77362,-59.30725 83.77625,-37.33435 12.46411,7.02191 25.51886,13.28808 37.51635,18.56665 -6.81579,-13.11078 -15.41308,-24.90729 -27.24035,-34.39191 -23.32129,-18.7019 -54.90741,-23.94775 -84.7688,-22.555 -31.35675,1.46252 -63.00171,9.8576 -88.48157,28.19232 -45.39062,32.662 -64.135,90.15283 -80.17773,143.72284 l 38.77752,19.43982 c 16.63312,-14.38 40.95581,-28.6048 63.37458,-15.97473 39.00256,21.973 83.80658,36.562 83.80658,36.562 0,0 -37.36194,-0.33789 -83.63868,-0.12464 -7.77227,0.0358 -15.29242,0.0851 -22.44134,0.142 L 636,618.56737 c 142,2 249.06818,-5.67914 384,0 7.0372,0.29614 22.8655,-36.592 22.9183,-46.29987 0.3719,-68.42139 -4.909,-138.67828 -33.6193,-200.78577 z m -137.88184,18.615 c -46.27673,0.21332 -83.94415,0.897 -83.94415,0.897 0,0 44.77362,-59.30725 83.77625,-37.33435 39.00263,21.9729 83.80658,36.562 83.80658,36.562 0,0 -37.36199,-0.33785 -83.63873,-0.1246 z"
         inkscape:connector-curvature="0" />
      <path
         id="path1298"
         opacity="0.3"
         fill="#fa7327"
         transform="translate(-60,-155.33054)"
         d="m 992,593.06737 c 0,-23.38843 -14.48063,-42.34852 -32.34348,-42.34852 -11.22724,0 -21.11532,7.493 -26.91464,18.865 a 19.36184,19.36184 0 0 0 -6.181,-1.01647 21.05874,21.05874 0 0 0 -14.48256,6.11334 c -5.22767,-14.17914 -16.31287,-23.96186 -29.14353,-23.96186 -11.99658,0 -22.45981,8.55848 -28.04345,21.26014 a 20.10673,20.10673 0 0 0 -11.06959,-3.41162 c -13.70863,0 -24.82174,14.55072 -24.82174,32.5 a 39.92792,39.92792 0 0 0 3.91062,17.5 H 985.47715 A 51.20123,51.20123 0 0 0 992,593.06737 Z"
         inkscape:connector-curvature="0" />
      <polygon
         id="polygon1300"
         fill="#2f2e41"
         points="1080,589.237 82,589.237 82,587.237 1079,587.237 " />
      <polygon
         id="polygon1302"
         fill="#2f2e41"
         points="998,465.237 0,465.237 0,463.237 997,463.237 " />
      <path
         id="path1304"
         fill="#ffb8b8"
         transform="translate(-60,-155.33054)"
         d="m 483.62962,436.46721 c 0,0 6.28547,-46.09349 16.76127,-33.52254 10.4758,12.57095 0,31.42738 0,31.42738 l -8.38064,10.4758 -8.38063,-6.28548 z"
         inkscape:connector-curvature="0" />
      <path
         id="path1306"
         fill="#fa7327"
         transform="translate(-60,-155.33054)"
         d="m 458.48771,451.13332 c 0,0 20.95159,-23.04674 25.14191,-18.85643 4.19032,4.19031 16.76127,6.28548 14.66611,14.66611 -2.09516,8.38063 -46.0935,35.6177 -46.0935,35.6177 z"
         inkscape:connector-curvature="0" />
      <path
         id="path1308"
         opacity="0.1"
         transform="translate(-60,-155.33054)"
         d="m 458.48771,451.13332 c 0,0 20.95159,-23.04674 25.14191,-18.85643 4.19032,4.19031 16.76127,6.28548 14.66611,14.66611 -2.09516,8.38063 -46.0935,35.6177 -46.0935,35.6177 z"
         inkscape:connector-curvature="0" />
      <path
         id="path1310"
         fill="#ffb8b8"
         transform="translate(-60,-155.33054)"
         d="m 339.06366,449.03816 v 16.76127 c 0,0 -2.09516,37.71286 10.47579,35.6177 12.57095,-2.09516 6.28548,-33.52254 6.28548,-33.52254 l -2.09516,-18.85643 z"
         inkscape:connector-curvature="0" />
      <path
         id="path1312"
         fill="#ffb8b8"
         transform="translate(-60,-155.33054)"
         d="m 345.34914,570.55737 c 0,0 -18.85643,29.33223 -25.14191,31.42739 -6.28548,2.09516 -39.808,20.95158 -43.99833,39.808 l -29.33223,37.71286 14.66611,18.85643 c 0,0 67.04509,-71.2354 85.90151,-77.52088 18.85642,-6.28548 37.71286,-37.71285 37.71286,-37.71285 z"
         inkscape:connector-curvature="0" />
      <path
         id="path1314"
         fill="#ffb8b8"
         transform="translate(-60,-155.33054)"
         d="m 494.10541,522.36872 c 0,0 39.808,6.28548 33.52254,31.42738 -6.28546,25.1419 -67.04508,77.5209 -67.04508,77.5209 l -2.09516,12.571 -23.04671,4.19025 -10.47579,-10.47579 2.09516,-6.28548 c 0,0 25.1419,-23.04675 27.23706,-31.42738 2.09516,-8.38063 25.14191,-41.90318 35.6177,-43.99834 L 475.249,547.51063 Z"
         inkscape:connector-curvature="0" />
      <path
         id="path1316"
         fill="#2f2e41"
         transform="translate(-60,-155.33054)"
         d="m 253.16215,679.50563 c 0,0 8.38063,-12.571 -4.19032,-10.47579 -12.57095,2.09521 -20.95159,4.19031 -20.95159,12.57095 0,8.38064 10.4758,67.04508 23.04675,62.85476 12.57095,-4.19032 2.09516,-23.04674 2.09516,-23.04674 0,0 6.28547,-16.76127 10.47579,-18.85643 4.19032,-2.09516 4.19032,-12.57095 0,-12.57095 -4.19032,0 -12.57094,-6.28543 -10.47579,-10.4758 z"
         inkscape:connector-curvature="0" />
      <path
         id="path1318"
         fill="#2f2e41"
         transform="translate(-60,-155.33054)"
         d="m 431.25065,633.41214 c 0,0 0,-10.4758 -8.38064,0 -8.38064,10.4758 -12.57095,18.85643 -4.19032,25.1419 8.38063,6.28547 37.71286,20.95159 37.71286,20.95159 0,0 31.42738,6.28548 27.23707,-8.38063 0,0 -20.95159,-10.4758 -20.95159,-18.85643 0,-8.38063 0,-23.04675 -6.28548,-18.85643 -6.28548,4.19032 -25.1419,6.28547 -25.1419,0 z"
         inkscape:connector-curvature="0" />
      <path
         id="path1320"
         fill="#2f2e41"
         transform="translate(-60,-155.33054)"
         d="m 391.44263,476.27523 c 0,0 -29.33222,4.19032 -27.23707,46.09349 0,0 -37.71285,37.71286 -27.23706,50.28381 10.47579,12.57095 33.52254,35.6177 41.90318,29.33223 8.38064,-6.28547 33.52254,-54.47413 33.52254,-54.47413 0,0 58.66444,20.95158 69.14024,10.47579 10.4758,-10.47579 20.95159,-35.6177 20.95159,-35.6177 l -52.379,-27.23706 z"
         inkscape:connector-curvature="0" />
      <circle
         id="circle1322"
         fill="#ffb8b8"
         r="25.141911"
         cy="176.37872"
         cx="413.15381" />
      <path
         id="path1324"
         fill="#ffb8b8"
         transform="translate(-60,-155.33054)"
         d="m 454.29739,333.80443 c 0,0 -14.66611,23.04675 -18.85643,25.14191 -4.19032,2.09516 29.33223,23.04674 29.33223,23.04674 0,0 0,-27.23706 10.47579,-33.52254 z"
         inkscape:connector-curvature="0" />
      <path
         id="path1326"
         fill="#fa7327"
         transform="translate(-60,-155.33054)"
         d="m 452.20223,356.85118 c 0,0 -33.52254,-10.4758 -39.808,6.28547 -6.28546,16.76127 -20.95159,48.18866 -18.85643,69.14024 2.09516,20.95158 6.28547,16.76127 0,23.04675 -6.28547,6.28548 -10.4758,2.09516 -8.38064,10.47579 2.09516,8.38063 4.19032,8.38064 2.09516,12.571 -2.09516,4.19036 25.1419,18.85639 48.18868,20.95157 l 23.04675,2.09516 c 0,0 0,-37.71285 4.19032,-46.09349 4.19032,-8.38064 12.571,-25.14191 12.571,-31.42738 v -16.63088 a 63.60673,63.60673 0 0 0 -8.38063,-31.55779 v 0 c 0,0 -12.57105,-18.85644 -14.66621,-18.85644 z"
         inkscape:connector-curvature="0" />
      <path
         id="path1328"
         fill="#fa7327"
         transform="translate(-60,-155.33054)"
         d="m 427.06033,365.23181 c 0,0 -77.52088,6.28548 -85.90151,27.23707 -8.38063,20.95159 -12.57095,62.85476 -4.19032,62.85476 8.38063,0 18.85643,4.19032 20.95159,0 2.09516,-4.19032 10.47579,-46.09349 12.57095,-46.09349 2.09516,0 64.94992,-6.28548 64.94992,-6.28548 0,0 27.23704,-33.52254 -8.38063,-37.71286 z"
         inkscape:connector-curvature="0" />
      <path
         id="path1330"
         fill="#2f2e41"
         transform="translate(-60,-155.33054)"
         d="m 474.164,325.47626 c 0,0 6.67194,-11.59461 15.01174,-1.52364 8.3398,10.07097 21.90695,-8.43621 19.82426,-12.38525 -2.08269,-3.94904 -9.4377,0.17756 -22.04212,-3.94283 -12.60442,-4.12039 -36.88462,-12.51447 -40.951,14.86727 -4.06638,27.38174 5.61827,24.51117 5.61827,24.51117 0,0 4.43914,-24.26318 8.45125,-17.29375 l 4.01211,6.96944 3.4802,0.85654 z"
         inkscape:connector-curvature="0" />
      <circle
         id="circle1332"
         fill="#2f2e41"
         r="30.67436"
         cy="75.31366"
         cx="651.30872" />
      <path
         id="path1334"
         fill="#9f616a"
         transform="translate(-60,-155.33054)"
         d="m 701.50364,253.34864 c 0,0 1.58734,28.57208 -1.58733,28.57208 -3.17467,0 19.84169,13.49237 19.84169,13.49237 l 14.286,-7.93668 v -9.524 c 0,0 -19.04806,-2.381 -11.11137,-23.0164 7.93669,-20.6354 -21.42899,-1.58737 -21.42899,-1.58737 z"
         inkscape:connector-curvature="0" />
      <polygon
         id="polygon1336"
         fill="#9f616a"
         points="572.454,435.327 580.391,437.708 586.74,431.359 589.121,411.517 574.835,411.517 " />
      <polygon
         id="polygon1338"
         fill="#9f616a"
         points="693.092,440.089 704.203,447.232 716.109,440.883 702.616,418.66 689.124,425.01 " />
      <circle
         id="circle1340"
         fill="#9f616a"
         r="23.016399"
         cy="87.303581"
         cx="649.04352" />
      <path
         id="path1342"
         fill="#9f616a"
         transform="translate(-60,-155.33054)"
         d="m 695.15429,328.74719 -5.55568,-2.381 c 0,0 -9.524,-5.55568 -10.31769,-16.667 -0.79369,-11.11132 7.93668,-25.3974 7.93668,-25.3974 l 12.69871,-3.96834 14.92,12.14338 0.15973,19.60337 z"
         inkscape:connector-curvature="0" />
      <path
         id="path1344"
         fill="#9f616a"
         transform="translate(-60,-155.33054)"
         d="m 689.59861,285.88907 -3.17467,-1.58734 c 0,0 -15.87338,-0.79367 -17.46072,18.25438 -1.58734,19.04805 -7.143,50.79481 -7.143,50.79481 0,0 -12.6987,22.22273 -11.905,46.0328 l -6.34935,20.63539 c 0,0 -8.73036,30.15941 1.58733,30.15941 10.31769,0 9.524,-32.54042 9.524,-32.54042 0,0 19.048,-46.03279 20.63539,-53.96948 1.58739,-7.93669 15.07971,-45.23913 11.11137,-55.55682 -3.96834,-10.31769 3.17465,-22.22273 3.17465,-22.22273 z"
         inkscape:connector-curvature="0" />
      <path
         id="path1346"
         fill="#9f616a"
         transform="translate(-60,-155.33054)"
         d="m 701.50364,335.89021 v 8.73035 c 0,0 5.55569,6.34936 3.17468,10.3177 -2.38101,3.96834 -4.762,11.905 -4.762,11.905 l 11.11135,17.46074 37.30244,3.17467 7.418,-49.69947 z"
         inkscape:connector-curvature="0" />
      <path
         id="path1348"
         fill="#9f616a"
         transform="translate(-60,-155.33054)"
         d="m 736.42507,280.33339 6.34935,-3.17468 c 0,0 13.49238,-9.524 24.60374,-11.11136 l 34.12776,-23.0164 22.22273,-53.17582 c 0,0 -0.79367,-28.57207 5.55568,-25.3974 6.34935,3.17467 5.55567,27.77841 5.55567,27.77841 0,0 -11.905,49.20747 -22.22272,62.69984 -10.31772,13.49237 -47.62014,35.7151 -47.62014,35.7151 0,0 -10.31769,11.905 -9.524,17.46072 0.79369,5.55572 -19.04807,-27.77841 -19.04807,-27.77841 z"
         inkscape:connector-curvature="0" />
      <path
         id="path1350"
         fill="#2f2e41"
         transform="translate(-60,-155.33054)"
         d="m 707.05933,366.84329 c 0,0 -8.73036,-5.55568 -14.286,3.96835 -5.55564,9.52403 -15.87338,11.905 -22.22273,40.47711 -6.34935,28.57211 -21.4291,73.81125 -25.39745,76.98588 -3.96835,3.17463 -20.63539,36.50877 -11.11136,83.33523 h 15.87338 L 663.40754,504.148 c 0,0 43.65179,-53.96949 46.82646,-76.19221 L 724.52,511.291 c 0,0 0.79367,31.74675 12.6987,46.82646 l 12.6987,30.15942 16.667,-7.93669 -19.048,-76.19221 c 0,0 9.524,-76.98588 3.17467,-98.41494 l -0.91239,-28.09391 c 0,0 -26.07231,1.1092 -42.73935,-10.79584 z"
         inkscape:connector-curvature="0" />
      <path
         id="path1352"
         fill="#2f2e41"
         transform="translate(-60,-155.33054)"
         d="m 640.39114,586.68957 h -9.524 c -1.58733,0 -14.286,10.31769 -8.73035,15.87338 5.55565,5.55569 14.286,15.87337 14.286,15.87337 0,0 30.95308,3.93669 31.74675,-1.619 0.79367,-5.55569 -13.49237,-17.42906 -13.49237,-17.42906 l -3.96834,-12.6987 c 0,0 -7.93668,-8.73035 -10.31769,10e-6 z"
         inkscape:connector-curvature="0" />
      <path
         id="path1354"
         fill="#2f2e41"
         transform="translate(-60,-155.33054)"
         d="m 766.58449,594.62626 c 0,0 -13.49237,-0.79367 -15.87338,-1.58734 -2.38101,-0.79367 -7.143,20.63539 0,22.22273 7.143,1.58734 36.50877,3.96835 36.50877,3.96835 0,0 23.0164,-0.79367 21.42906,-7.143 -1.58734,-6.34933 -32.54042,-19.048 -32.54042,-19.048 0,0 -3.96835,-7.93677 -9.52403,1.58726 z"
         inkscape:connector-curvature="0" />
      <path
         id="path1356"
         fill="#fa7327"
         transform="translate(-60,-155.33054)"
         d="m 703.88465,279.53972 -3.96834,-2.381 -4.762,3.96834 c 0,0 14.286,9.524 11.11137,18.25439 -3.17463,8.73039 -16.66705,26.98474 -16.66705,26.98474 0,0 11.905,13.49237 11.905,18.25438 0,0 30.95309,-11.11136 53.96949,0 0,0 0,-15.87337 3.17467,-19.048 3.17467,-3.17463 4.762,-14.286 -3.17467,-23.81006 a 174.0074,174.0074 0 0 1 -15.07971,-22.22273 l -7.93669,-4.762 -4.0879,1.29666 c 0,0 8.05624,9.021 0.11956,9.81471 -7.93668,0.79371 -20.63538,-1.58742 -24.60373,-6.34943 z"
         inkscape:connector-curvature="0" />
      <path
         id="path1358"
         fill="#2f2e41"
         transform="translate(-60,-155.33054)"
         d="m 733.72756,178.34694 a 16.76744,16.76744 0 0 1 -10.4,5.44762 c -6.93334,0.99048 -1.48571,11.88573 -1.48571,11.88573 0,0 -1.981,-3.96191 1.981,-7.42858 3.962,-3.46667 9.90471,-5.44763 9.90471,-9.90477 z"
         inkscape:connector-curvature="0" />
      <circle
         id="circle1360"
         fill="#2f2e41"
         r="8.5485897"
         cy="42.627869"
         cx="660.36017" />
      <path
         id="path1362"
         fill="#fa7327"
         transform="translate(-60,-155.33054)"
         d="m 730.34038,206.376 c -6.60419,-3.44952 -17.9654,-6.16264 -24.00173,-5.9687 l 1.527,-5.83788 c 5.34392,3.63063 16.6454,6.39441 24.00173,5.9687 z"
         inkscape:connector-curvature="0" />
      <path
         id="path1364"
         fill="#2f2e41"
         transform="translate(-60,-155.33054)"
         d="m 716.69635,206.88982 c 0,0 -10.40688,13.38026 -31.22063,16.35366 -20.81375,2.9734 -4.46009,35.68071 -4.46009,35.68071 0,0 -5.94678,-11.89357 5.94679,-22.30044 11.89357,-10.40687 29.73393,-16.35367 29.73393,-29.73393 z"
         inkscape:connector-curvature="0" />
      <path
         id="path1366"
         fill="#2f2e41"
         transform="translate(-60,-155.33054)"
         d="m 717.49,206.09615 c 0,0 5.94678,20.81375 14.867,23.78714 8.92022,2.97339 4.46009,34.194 -10.40687,37.16741 0,0 12.63692,-17.097 5.20344,-30.47727 C 719.72009,223.19316 715.26,212.78628 717.49,206.09615 Z"
         inkscape:connector-curvature="0" />
      <rect
         id="rect1368"
         fill="#2f2e41"
         height="6.34935"
         width="54.763149"
         y="15.87338"
         x="742.69641" />
      <ellipse
         id="ellipse1370"
         fill="#2f2e41"
         ry="19.04805"
         rx="4.7620101"
         cy="19.04805"
         cx="797.45959" />
      <ellipse
         id="ellipse1372"
         fill="#2f2e41"
         ry="19.04805"
         rx="4.7620101"
         cy="19.04805"
         cx="742.69641" />
      <rect
         id="rect1374"
         fill="#2f2e41"
         height="6.34935"
         width="54.763149"
         y="442.88248"
         x="770.47485" />
      <ellipse
         id="ellipse1376"
         fill="#2f2e41"
         ry="19.04805"
         rx="4.7620101"
         cy="446.05716"
         cx="825.23798" />
      <ellipse
         id="ellipse1378"
         fill="#2f2e41"
         ry="19.04805"
         rx="4.7620101"
         cy="446.05716"
         cx="770.47485" />
      <path
         id="path1380"
         opacity="0.3"
         fill="#fa7327"
         transform="translate(-60,-155.33054)"
         d="m 254,593.06737 c 0,-23.38843 -14.48063,-42.34852 -32.34348,-42.34852 -11.22724,0 -21.11532,7.493 -26.91464,18.865 a 19.36184,19.36184 0 0 0 -6.181,-1.01647 21.05874,21.05874 0 0 0 -14.48256,6.11334 c -5.22767,-14.17914 -16.31287,-23.96186 -29.14353,-23.96186 -11.99658,0 -22.45981,8.55848 -28.04345,21.26014 a 20.10673,20.10673 0 0 0 -11.06959,-3.41162 c -13.70863,0 -24.82174,14.55072 -24.82174,32.5 a 39.92792,39.92792 0 0 0 3.91062,17.5 H 247.47715 A 51.20123,51.20123 0 0 0 254,593.06737 Z"
         inkscape:connector-curvature="0" />
    </g>
  </g>
</svg>
